<?xml version="1.0" encoding="UTF-8" standalone="no"?>
<svg width="69px" height="51px" viewBox="0 0 69 51" version="1.1" xmlns="http://www.w3.org/2000/svg" xmlns:xlink="http://www.w3.org/1999/xlink">
    <!-- Generator: Sketch 3.8.2 (29753) - http://www.bohemiancoding.com/sketch -->
    <title>Icon-24px</title>
    <desc>Created with Sketch.</desc>
    <defs></defs>
    <g id="Orbi-Web-UI" stroke="none" stroke-width="1" fill="none" fill-rule="evenodd">
        <g id="Basic" transform="translate(-683.000000, -179.000000)">
            <g id="Icon-24px" transform="translate(680.000000, 167.000000)">
                <polygon id="Shape" points="0 0 75 0 75 75 0 75"></polygon>
                <path d="M9.375,18.75 L65.625,18.75 L65.625,12.5 L9.375,12.5 C5.9375,12.5 3.125,15.3125 3.125,18.75 L3.125,56.25 C3.125,59.6875 5.9375,62.5 9.375,62.5 L21.875,62.5 L21.875,56.25 L9.375,56.25 L9.375,18.75 L9.375,18.75 L9.375,18.75 Z M40.625,37.5 L28.125,37.5 L28.125,43.0625 C26.21875,44.78125 25,47.21875 25,50 C25,52.78125 26.21875,55.21875 28.125,56.9375 L28.125,62.5 L40.625,62.5 L40.625,56.9375 C42.53125,55.21875 43.75,52.75 43.75,50 C43.75,47.25 42.53125,44.78125 40.625,43.0625 L40.625,37.5 L40.625,37.5 L40.625,37.5 Z M34.375,54.6875 C31.78125,54.6875 29.6875,52.59375 29.6875,50 C29.6875,47.40625 31.78125,45.3125 34.375,45.3125 C36.96875,45.3125 39.0625,47.40625 39.0625,50 C39.0625,52.59375 36.96875,54.6875 34.375,54.6875 L34.375,54.6875 L34.375,54.6875 Z M68.75,25 L50,25 C48.4375,25 46.875,26.5625 46.875,28.125 L46.875,59.375 C46.875,60.9375 48.4375,62.5 50,62.5 L68.75,62.5 C70.3125,62.5 71.875,60.9375 71.875,59.375 L71.875,28.125 C71.875,26.5625 70.3125,25 68.75,25 L68.75,25 L68.75,25 Z M65.625,56.25 L53.125,56.25 L53.125,31.25 L65.625,31.25 L65.625,56.25 L65.625,56.25 L65.625,56.25 Z" id="Shape" fill="#882EA3"></path>
            </g>
        </g>
    </g>
</svg>