<?xml version="1.0" encoding="UTF-8" standalone="no"?>
<svg width="54px" height="55px" viewBox="0 0 54 55" version="1.1" xmlns="http://www.w3.org/2000/svg" xmlns:xlink="http://www.w3.org/1999/xlink">
    <!-- Generator: Sketch 3.8.2 (29753) - http://www.bohemiancoding.com/sketch -->
    <title>Group</title>
    <desc>Created with Sketch.</desc>
    <defs></defs>
    <g id="Orbi-Web-UI" stroke="none" stroke-width="1" fill="none" fill-rule="evenodd">
        <g id="Basic" transform="translate(-691.000000, -370.000000)">
            <g id="Group" transform="translate(680.000000, 360.000000)">
                <rect id="Rectangle-34" x="0" y="0" width="76" height="76"></rect>
                <g id="f209" transform="translate(11.733333, 27.066667)" fill="#882EA3">
                    <path d="M38.3000306,18.9855527 C36.4821219,18.9855527 34.9327677,18.3429068 33.6519679,17.057613 C32.3711681,15.7723212 31.7307692,14.2175307 31.7307692,12.3932434 C31.7307692,10.5689561 32.3711681,8.99343423 33.6519679,7.66667984 C34.9327677,6.33992546 36.4821219,5.67654826 38.3000306,5.67654826 C40.1179392,5.67654826 41.6672935,6.33992546 42.9480912,7.66667984 C44.228891,8.99343423 44.8692919,10.5689561 44.8692919,12.3932434 C44.8692919,14.2175307 44.228891,15.7723212 42.9480912,17.057613 C41.6672935,18.3429068 40.1179392,18.9855527 38.3000306,18.9855527 L38.3000306,18.9855527 Z M18.5302742,16.3735066 C16.340519,16.3735066 14.4606381,15.5857456 12.890625,14.0102237 C11.3206119,12.4347039 10.5356075,10.5482248 10.5356075,8.35078837 C10.5356075,6.15335195 11.3206119,4.287602 12.890625,2.75354277 C14.4606381,1.21948354 16.340519,0.45245393 18.5302742,0.45245393 C20.7200273,0.45245393 22.5792515,1.21948354 24.1079469,2.75354277 C25.6366444,4.287602 26.4009921,6.15335195 26.4009921,8.35078837 C26.4009921,10.5482248 25.6366444,12.4347039 24.1079469,14.0102237 C22.5792515,15.5857456 20.7200273,16.3735066 18.5302742,16.3735066 L18.5302742,16.3735066 Z M38.362005,24.3340329 C41.3780802,24.3340329 44.5594198,24.9974101 47.9060238,26.3241645 C51.25263,27.6509188 52.925931,29.3922829 52.925931,31.5482588 L52.925931,37.5186535 L23.7980769,37.5186535 L23.7980769,31.5482588 C23.7980769,29.3922829 25.47138,27.6509188 28.817984,26.3241645 C32.1645881,24.9974101 35.3459277,24.3340329 38.362005,24.3340329 L38.362005,24.3340329 Z M18.4682998,21.5976009 C20.2862085,21.5976009 22.3933304,21.8463684 24.7896635,22.3439013 C20.5754196,24.6657215 18.4682998,27.7338399 18.4682998,31.5482588 L18.4682998,37.5186535 L0,37.5186535 L0,30.9263421 C0,29.0191338 1.13619212,27.3192302 3.40857846,25.8266316 C5.68096481,24.3340329 8.20124673,23.2560439 10.9694263,22.5926667 C13.737606,21.9292895 16.237229,21.5976009 18.4682998,21.5976009 L18.4682998,21.5976009 Z" id="Shape"></path>
                </g>
                <path d="M42.0416667,15.375 L44.125,17.4583333 C49.3020833,12.28125 57.6979167,12.28125 62.875,17.4583333 L64.9583333,15.375 C58.6354167,9.05208333 48.375,9.05208333 42.0416667,15.375 L42.0416667,15.375 L42.0416667,15.375 Z M50.375,23.7083333 L53.5,26.8333333 L56.625,23.7083333 C54.90625,21.9791667 52.1041667,21.9791667 50.375,23.7083333 L50.375,23.7083333 L50.375,23.7083333 Z M46.2083333,19.5416667 L48.2916667,21.625 C51.1666667,18.75 55.8333333,18.75 58.7083333,21.625 L60.7916667,19.5416667 C56.7708333,15.5208333 50.2395833,15.5208333 46.2083333,19.5416667 L46.2083333,19.5416667 L46.2083333,19.5416667 Z" id="Shape" fill="#882EA3"></path>
            </g>
        </g>
    </g>
</svg>