<?xml version="1.0" encoding="UTF-8" standalone="no"?>
<svg width="67px" height="67px" viewBox="0 0 67 67" version="1.1" xmlns="http://www.w3.org/2000/svg" xmlns:xlink="http://www.w3.org/1999/xlink">
    <!-- Generator: Sketch 3.8.2 (29753) - http://www.bohemiancoding.com/sketch -->
    <title>Icon 24px</title>
    <desc>Created with Sketch.</desc>
    <defs></defs>
    <g id="Orbi-Web-UI" stroke="none" stroke-width="1" fill="none" fill-rule="evenodd">
        <g id="Basic" transform="translate(-298.000000, -171.000000)">
            <g id="Icon-24px" transform="translate(294.000000, 167.000000)">
                <polygon id="Shape" points="0 0 75 0 75 75 0 75"></polygon>
                <path d="M37.4665,4 C18.9745,4 4,19.008 4,37.5 C4,55.992 18.9745,71 37.4665,71 C55.992,71 71,55.992 71,37.5 C71,19.008 55.992,4 37.4665,4 L37.4665,4 Z M60.682,24.1 L50.7995,24.1 C49.7275,19.9125 48.1865,15.8925 46.1765,12.174 C52.3405,14.2845 57.466,18.5725 60.682,24.1 L60.682,24.1 Z M37.5,10.834 C40.2805,14.854 42.458,19.3095 43.8985,24.1 L31.1015,24.1 C32.542,19.3095 34.7195,14.854 37.5,10.834 L37.5,10.834 Z M11.571,44.2 C11.035,42.056 10.7,39.8115 10.7,37.5 C10.7,35.1885 11.035,32.944 11.571,30.8 L22.894,30.8 C22.626,33.011 22.425,35.222 22.425,37.5 C22.425,39.778 22.626,41.989 22.894,44.2 L11.571,44.2 L11.571,44.2 Z M14.318,50.9 L24.2005,50.9 C25.2725,55.0875 26.8135,59.1075 28.8235,62.826 C22.6595,60.7155 17.534,56.461 14.318,50.9 L14.318,50.9 Z M24.2005,24.1 L14.318,24.1 C17.534,18.539 22.6595,14.2845 28.8235,12.174 C26.8135,15.8925 25.2725,19.9125 24.2005,24.1 L24.2005,24.1 Z M37.5,64.166 C34.7195,60.146 32.542,55.6905 31.1015,50.9 L43.8985,50.9 C42.458,55.6905 40.2805,60.146 37.5,64.166 L37.5,64.166 Z M45.339,44.2 L29.661,44.2 C29.3595,41.989 29.125,39.778 29.125,37.5 C29.125,35.222 29.3595,32.9775 29.661,30.8 L45.339,30.8 C45.6405,32.9775 45.875,35.222 45.875,37.5 C45.875,39.778 45.6405,41.989 45.339,44.2 L45.339,44.2 Z M46.1765,62.826 C48.1865,59.1075 49.7275,55.0875 50.7995,50.9 L60.682,50.9 C57.466,56.4275 52.3405,60.7155 46.1765,62.826 L46.1765,62.826 Z M52.106,44.2 C52.374,41.989 52.575,39.778 52.575,37.5 C52.575,35.222 52.374,33.011 52.106,30.8 L63.429,30.8 C63.965,32.944 64.3,35.1885 64.3,37.5 C64.3,39.8115 63.965,42.056 63.429,44.2 L52.106,44.2 L52.106,44.2 Z" id="Shape" fill="#882EA3"></path>
            </g>
        </g>
    </g>
</svg>