<?xml version="1.0" encoding="UTF-8" standalone="no"?>
<svg width="231px" height="142px" viewBox="0 0 231 142" version="1.1" xmlns="http://www.w3.org/2000/svg" xmlns:xlink="http://www.w3.org/1999/xlink">
    <!-- Generator: Sketch 3.8.3 (29802) - http://www.bohemiancoding.com/sketch -->
    <title>NG-Orbi-Logo-2016-FA-Blue-w-tag</title>
    <desc>Created with Sketch.</desc>
    <defs>
        <path d="M35.077,62.923 C19.97,62.923 7.727,50.673 7.727,35.568 C7.727,20.458 19.97,8.212 35.077,8.212 C50.179,8.212 62.427,20.458 62.427,35.568 C62.427,50.673 50.179,62.923 35.077,62.923 L35.077,62.923 L35.077,62.923 Z M35.142,0.677 C15.917,0.677 0.332,16.265 0.332,35.493 C0.332,54.722 15.917,70.31 35.142,70.31 C54.367,70.31 69.951,54.722 69.951,35.493 C69.951,16.265 54.367,0.677 35.142,0.677 L35.142,0.677 L35.142,0.677 Z" id="path-1"></path>
        <path d="M35.077,62.923 C19.97,62.923 7.727,50.673 7.727,35.568 C7.727,20.458 19.97,8.212 35.077,8.212 C50.179,8.212 62.427,20.458 62.427,35.568 C62.427,50.673 50.179,62.923 35.077,62.923 L35.077,62.923 L35.077,62.923 Z M35.142,0.677 C15.917,0.677 0.332,16.265 0.332,35.493 C0.332,54.722 15.917,70.31 35.142,70.31 C54.367,70.31 69.951,54.722 69.951,35.493 C69.951,16.265 54.367,0.677 35.142,0.677 L35.142,0.677 L35.142,0.677 Z" id="path-3"></path>
        <path d="M35.418,0.677 L35.418,8.217 C35.418,8.212 35.165,8.212 35.06,8.212 C19.978,8.212 8.068,20.418 7.571,35.493 L7.571,70.459 L0.609,70.459 L0.609,35.493 C0.609,16.265 16.025,0.677 35.418,0.677 L35.418,0.677 L35.418,0.677 Z" id="path-5"></path>
        <path d="M35.418,0.677 L35.418,8.217 C35.418,8.212 35.165,8.212 35.06,8.212 C19.978,8.212 8.068,20.418 7.571,35.493 L7.571,70.459 L0.609,70.459 L0.609,35.493 C0.609,16.265 16.025,0.677 35.418,0.677 L35.418,0.677 L35.418,0.677 Z" id="path-7"></path>
        <path d="M35.429,83.923 C20.322,83.923 8.079,71.673 8.079,56.568 C8.079,41.458 20.322,29.212 35.429,29.212 C50.531,29.212 62.779,41.458 62.779,56.568 C62.779,71.673 50.531,83.923 35.429,83.923 L35.429,83.923 L35.429,83.923 Z M8.079,35.036 C14.451,26.903 24.362,21.677 35.494,21.677 C54.718,21.677 70.303,37.265 70.303,56.493 C70.303,75.722 54.718,91.31 35.494,91.31 C16.368,91.31 0.845,75.882 0.685,56.79 L0.684,56.79 L0.684,0.439 L8.079,0.439 L8.079,35.036 L8.079,35.036 L8.079,35.036 Z" id="path-9"></path>
        <path d="M35.429,83.923 C20.322,83.923 8.079,71.673 8.079,56.568 C8.079,41.458 20.322,29.212 35.429,29.212 C50.531,29.212 62.779,41.458 62.779,56.568 C62.779,71.673 50.531,83.923 35.429,83.923 L35.429,83.923 L35.429,83.923 Z M8.079,35.036 C14.451,26.903 24.362,21.677 35.494,21.677 C54.718,21.677 70.303,37.265 70.303,56.493 C70.303,75.722 54.718,91.31 35.494,91.31 C16.368,91.31 0.845,75.882 0.685,56.79 L0.684,56.79 L0.684,0.439 L8.079,0.439 L8.079,35.036 L8.079,35.036 L8.079,35.036 Z" id="path-11"></path>
    </defs>
    <g id="Page-1" stroke="none" stroke-width="1" fill="none" fill-rule="evenodd">
        <g id="NG-Orbi-Logo-2016-FA-Blue-w-tag">
            <g id="Page-1">
                <g id="OrbiMobile_Flow_v1.5_06.06.2016">
                    <g id="NG-Orbi-Logo-2016-FA-Blue-w-tag">
                        <path d="M35.077,83.923 C19.97,83.923 7.727,71.673 7.727,56.568 C7.727,41.458 19.97,29.212 35.077,29.212 C50.179,29.212 62.427,41.458 62.427,56.568 C62.427,71.673 50.179,83.923 35.077,83.923 M35.142,21.677 C15.917,21.677 0.332,37.265 0.332,56.493 C0.332,75.722 15.917,91.31 35.142,91.31 C54.367,91.31 69.951,75.722 69.951,56.493 C69.951,37.265 54.367,21.677 35.142,21.677" id="Fill-1" fill="#00B4F5"></path>
                        <g id="Group-4" transform="translate(0.000000, 21.000000)">
                            <g id="mask-2" fill="#FFFFFF">
                                <path d="M35.077,62.923 C19.97,62.923 7.727,50.673 7.727,35.568 C7.727,20.458 19.97,8.212 35.077,8.212 C50.179,8.212 62.427,20.458 62.427,35.568 C62.427,50.673 50.179,62.923 35.077,62.923 L35.077,62.923 L35.077,62.923 Z M35.142,0.677 C15.917,0.677 0.332,16.265 0.332,35.493 C0.332,54.722 15.917,70.31 35.142,70.31 C54.367,70.31 69.951,54.722 69.951,35.493 C69.951,16.265 54.367,0.677 35.142,0.677 L35.142,0.677 L35.142,0.677 Z" id="path-1"></path>
                            </g>
                            <g id="Fill-2-Clipped">
                                <mask id="mask-2" fill="white">
                                    <use xlink:href="#path-1"></use>
                                </mask>
                                <g id="path-1"></g>
                                <polygon id="Fill-2" fill="#00B4F5" mask="url(#mask-2)" points="0.332 70.31 69.951 70.31 69.951 0.677 0.332 0.677"></polygon>
                            </g>
                        </g>
                        <g id="Group-7" transform="translate(0.000000, 21.000000)">
                            <g id="mask-4" fill="#FFFFFF">
                                <path d="M35.077,62.923 C19.97,62.923 7.727,50.673 7.727,35.568 C7.727,20.458 19.97,8.212 35.077,8.212 C50.179,8.212 62.427,20.458 62.427,35.568 C62.427,50.673 50.179,62.923 35.077,62.923 L35.077,62.923 L35.077,62.923 Z M35.142,0.677 C15.917,0.677 0.332,16.265 0.332,35.493 C0.332,54.722 15.917,70.31 35.142,70.31 C54.367,70.31 69.951,54.722 69.951,35.493 C69.951,16.265 54.367,0.677 35.142,0.677 L35.142,0.677 L35.142,0.677 Z" id="path-3"></path>
                            </g>
                            <g id="Fill-5-Clipped">
                                <mask id="mask-4" fill="white">
                                    <use xlink:href="#path-3"></use>
                                </mask>
                                <g id="path-3"></g>
                                <polygon id="Fill-5" fill="#00B4F5" mask="url(#mask-4)" points="0.3 70.36 70.02 70.36 70.02 0.64 0.3 0.64"></polygon>
                            </g>
                        </g>
                        <path d="M112.418,21.677 L112.418,29.217 C112.418,29.212 112.165,29.212 112.06,29.212 C96.978,29.212 85.068,41.418 84.571,56.493 L84.571,91.459 L77.609,91.459 L77.609,56.493 C77.609,37.265 93.025,21.677 112.418,21.677" id="Fill-8" fill="#00B4F5"></path>
                        <g id="Group-11" transform="translate(77.000000, 21.000000)">
                            <g id="mask-6" fill="#FFFFFF">
                                <path d="M35.418,0.677 L35.418,8.217 C35.418,8.212 35.165,8.212 35.06,8.212 C19.978,8.212 8.068,20.418 7.571,35.493 L7.571,70.459 L0.609,70.459 L0.609,35.493 C0.609,16.265 16.025,0.677 35.418,0.677 L35.418,0.677 L35.418,0.677 Z" id="path-5"></path>
                            </g>
                            <g id="Fill-9-Clipped">
                                <mask id="mask-6" fill="white">
                                    <use xlink:href="#path-5"></use>
                                </mask>
                                <g id="path-5"></g>
                                <polygon id="Fill-9" fill="#00B4F5" mask="url(#mask-6)" points="0.609 70.459 35.418 70.459 35.418 0.677 0.609 0.677"></polygon>
                            </g>
                        </g>
                        <g id="Group-14" transform="translate(77.000000, 21.000000)">
                            <g id="mask-8" fill="#FFFFFF">
                                <path d="M35.418,0.677 L35.418,8.217 C35.418,8.212 35.165,8.212 35.06,8.212 C19.978,8.212 8.068,20.418 7.571,35.493 L7.571,70.459 L0.609,70.459 L0.609,35.493 C0.609,16.265 16.025,0.677 35.418,0.677 L35.418,0.677 L35.418,0.677 Z" id="path-7"></path>
                            </g>
                            <g id="Fill-12-Clipped">
                                <mask id="mask-8" fill="white">
                                    <use xlink:href="#path-7"></use>
                                </mask>
                                <g id="path-7"></g>
                                <polygon id="Fill-12" fill="#00B4F5" mask="url(#mask-8)" points="0.58 70.48 35.5 70.48 35.5 0.64 0.58 0.64"></polygon>
                            </g>
                        </g>
                        <path d="M153.429,83.923 C138.322,83.923 126.079,71.673 126.079,56.568 C126.079,41.458 138.322,29.212 153.429,29.212 C168.531,29.212 180.779,41.458 180.779,56.568 C180.779,71.673 168.531,83.923 153.429,83.923 M126.079,35.036 C132.451,26.903 142.362,21.677 153.494,21.677 C172.718,21.677 188.303,37.265 188.303,56.493 C188.303,75.722 172.718,91.31 153.494,91.31 C134.368,91.31 118.845,75.882 118.685,56.79 L118.684,56.79 L118.684,0.439 L126.079,0.439 L126.079,35.036" id="Fill-15" fill="#00B4F5"></path>
                        <g id="Group-18" transform="translate(118.000000, 0.000000)">
                            <g id="mask-10" fill="#FFFFFF">
                                <path d="M35.429,83.923 C20.322,83.923 8.079,71.673 8.079,56.568 C8.079,41.458 20.322,29.212 35.429,29.212 C50.531,29.212 62.779,41.458 62.779,56.568 C62.779,71.673 50.531,83.923 35.429,83.923 L35.429,83.923 L35.429,83.923 Z M8.079,35.036 C14.451,26.903 24.362,21.677 35.494,21.677 C54.718,21.677 70.303,37.265 70.303,56.493 C70.303,75.722 54.718,91.31 35.494,91.31 C16.368,91.31 0.845,75.882 0.685,56.79 L0.684,56.79 L0.684,0.439 L8.079,0.439 L8.079,35.036 L8.079,35.036 L8.079,35.036 Z" id="path-9"></path>
                            </g>
                            <g id="Fill-16-Clipped">
                                <mask id="mask-10" fill="white">
                                    <use xlink:href="#path-9"></use>
                                </mask>
                                <g id="path-9"></g>
                                <polygon id="Fill-16" fill="#00B4F5" mask="url(#mask-10)" points="0.684 91.31 70.303 91.31 70.303 0.439 0.684 0.439"></polygon>
                            </g>
                        </g>
                        <g id="Group-21" transform="translate(118.000000, 0.000000)">
                            <g id="mask-12" fill="#FFFFFF">
                                <path d="M35.429,83.923 C20.322,83.923 8.079,71.673 8.079,56.568 C8.079,41.458 20.322,29.212 35.429,29.212 C50.531,29.212 62.779,41.458 62.779,56.568 C62.779,71.673 50.531,83.923 35.429,83.923 L35.429,83.923 L35.429,83.923 Z M8.079,35.036 C14.451,26.903 24.362,21.677 35.494,21.677 C54.718,21.677 70.303,37.265 70.303,56.493 C70.303,75.722 54.718,91.31 35.494,91.31 C16.368,91.31 0.845,75.882 0.685,56.79 L0.684,56.79 L0.684,0.439 L8.079,0.439 L8.079,35.036 L8.079,35.036 L8.079,35.036 Z" id="path-11"></path>
                            </g>
                            <g id="Fill-19-Clipped">
                                <mask id="mask-12" fill="white">
                                    <use xlink:href="#path-11"></use>
                                </mask>
                                <g id="path-11"></g>
                                <polygon id="Fill-19" fill="#00B4F5" mask="url(#mask-12)" points="0.62 91.36 70.34 91.36 70.34 0.4 0.62 0.4"></polygon>
                            </g>
                        </g>
                        <path d="M195.908,91.606 L203.303,91.606 L203.303,21.677 L195.908,21.677 L195.908,91.606 L195.908,91.606 Z M199.613,0.451 C202.359,0.451 204.585,2.678 204.585,5.425 C204.585,8.172 202.359,10.398 199.613,10.398 C196.866,10.398 194.64,8.172 194.64,5.425 C194.64,2.678 196.866,0.451 199.613,0.451 L199.613,0.451 L199.613,0.451 Z" id="Fill-22" fill="#00B4F5"></path>
                        <g id="Group-27" transform="translate(194.000000, 0.000000)" fill="#00B4F5">
                            <g id="mask-14">
                                <path d="M1.908,91.606 L9.303,91.606 L9.303,21.677 L1.908,21.677 L1.908,91.606 L1.908,91.606 L1.908,91.606 Z M5.613,0.451 C8.359,0.451 10.585,2.678 10.585,5.425 C10.585,8.172 8.359,10.398 5.613,10.398 C2.866,10.398 0.64,8.172 0.64,5.425 C0.64,2.678 2.866,0.451 5.613,0.451 L5.613,0.451 L5.613,0.451 Z" id="path-13"></path>
                            </g>
                        </g>
                        <polyline id="Fill-28" fill="#00B4F5" points="213.69 82.438 210.621 82.438 210.621 81.33 218.09 81.33 218.09 82.438 215.007 82.438 215.007 91.419 213.69 91.419 213.69 82.438"></polyline>
                        <g id="Group-32" transform="translate(0.000000, 81.000000)" fill="#00B4F5">
                            <g id="Fill-29-Clipped" transform="translate(218.000000, 0.000000)">
                                <path d="M9.715,5.989 C9.641,4.581 9.551,2.89 9.565,1.632 L9.521,1.632 C9.176,2.815 8.757,4.073 8.248,5.464 L6.467,10.36 L5.479,10.36 L3.848,5.554 C3.368,4.132 2.964,2.83 2.68,1.632 L2.649,1.632 C2.62,2.89 2.545,4.581 2.455,6.093 L2.186,10.419 L0.943,10.419 L1.647,0.33 L3.309,0.33 L5.03,5.21 C5.449,6.453 5.793,7.56 6.048,8.608 L6.093,8.608 C6.347,7.59 6.706,6.483 7.155,5.21 L8.952,0.33 L10.613,0.33 L11.242,10.419 L9.97,10.419 L9.715,5.989" id="Fill-29"></path>
                            </g>
                            <g id="Fill-31-Clipped" transform="translate(0.000000, 40.000000)">
                                <path d="M7.33,9.481 C6.399,8.551 4.887,8.62 3.304,8.62 L2.024,8.62 L2.024,13.973 L3.747,13.973 C5.562,13.973 6.516,13.833 7.354,12.995 C7.795,12.553 8.028,11.831 8.028,11.227 C8.028,10.621 7.842,9.993 7.33,9.481 L7.33,9.481 L7.33,9.481 Z M6.958,2.64 C6.12,1.732 4.654,1.802 3.374,1.802 L2.024,1.802 L2.024,7.015 L3.211,7.015 C4.491,7.015 5.957,6.968 6.841,6.153 C7.307,5.734 7.562,5.153 7.562,4.362 C7.562,3.664 7.354,3.059 6.958,2.64 L6.958,2.64 L6.958,2.64 Z M8.982,14.229 C7.493,15.718 5.538,15.671 2.746,15.671 L0,15.671 L0,0.15 L4.282,0.15 C5.864,0.15 7.33,0.22 8.447,1.337 C9.285,2.175 9.657,3.151 9.657,4.315 C9.657,6.735 7.889,7.597 7.167,7.713 C8.726,7.945 10.146,8.992 10.146,11.18 C10.146,12.413 9.727,13.483 8.982,14.229 L8.982,14.229 L8.982,14.229 Z" id="Fill-31"></path>
                            </g>
                        </g>
                        <path d="M17.169,126.688 C15.4,126.688 14.074,127.991 13.911,130.016 L19.868,130.016 C19.868,128.713 19.263,126.688 17.169,126.688 L17.169,126.688 L17.169,126.688 Z M21.73,131.575 L13.888,131.575 C13.865,133.506 14.981,135.251 17.425,135.251 C19.193,135.251 20.403,134.483 20.613,134.367 L21.357,135.717 C21.171,135.856 19.635,136.927 17.262,136.927 C13.841,136.927 11.91,134.46 11.91,131.109 C11.91,127.526 14.004,125.105 17.146,125.105 C19.984,125.105 21.776,127.2 21.776,130.737 C21.776,130.97 21.73,131.365 21.73,131.575 L21.73,131.575 L21.73,131.575 Z" id="Fill-33" fill="#00B4F5"></path>
                        <path d="M27.8,136.95 C26.776,136.95 25.869,136.694 25.264,136.089 C24.449,135.274 24.519,134.135 24.519,132.785 L24.519,127.037 L22.541,127.037 L22.541,125.408 L24.519,125.408 L24.519,122.244 L26.497,122.244 L26.497,125.408 L29.964,125.408 L29.964,127.037 L26.497,127.037 L26.497,133.11 C26.497,134.251 26.544,135.251 28.149,135.251 C29.057,135.251 29.615,134.973 29.708,134.949 L30.22,136.345 C30.08,136.415 29.196,136.95 27.8,136.95" id="Fill-34" fill="#00B4F5"></path>
                        <path d="M35.988,136.95 C34.964,136.95 34.057,136.694 33.452,136.089 C32.638,135.274 32.708,134.135 32.708,132.785 L32.708,127.037 L30.73,127.037 L30.73,125.408 L32.708,125.408 L32.708,122.244 L34.685,122.244 L34.685,125.408 L38.152,125.408 L38.152,127.037 L34.685,127.037 L34.685,133.11 C34.685,134.251 34.732,135.251 36.337,135.251 C37.245,135.251 37.803,134.973 37.896,134.949 L38.408,136.345 C38.269,136.415 37.384,136.95 35.988,136.95" id="Fill-35" fill="#00B4F5"></path>
                        <path d="M44.2,126.688 C42.432,126.688 41.105,127.991 40.942,130.016 L46.899,130.016 C46.899,128.713 46.294,126.688 44.2,126.688 L44.2,126.688 L44.2,126.688 Z M48.761,131.575 L40.919,131.575 C40.896,133.506 42.013,135.251 44.456,135.251 C46.225,135.251 47.435,134.483 47.644,134.367 L48.389,135.717 C48.203,135.856 46.666,136.927 44.294,136.927 C40.873,136.927 38.941,134.46 38.941,131.109 C38.941,127.526 41.036,125.105 44.177,125.105 C47.016,125.105 48.808,127.2 48.808,130.737 C48.808,130.97 48.761,131.365 48.761,131.575 L48.761,131.575 L48.761,131.575 Z" id="Fill-36" fill="#00B4F5"></path>
                        <path d="M57.018,126.897 C56.878,126.874 56.529,126.828 56.181,126.828 C53.97,126.828 53.039,128.434 52.853,128.666 L52.853,136.671 L50.875,136.671 L50.875,125.408 L52.644,125.408 L52.644,126.874 C52.76,126.734 53.993,125.105 56.273,125.105 C57.111,125.105 57.414,125.292 57.483,125.315 L57.018,126.897" id="Fill-37" fill="#00B4F5"></path>
                        <polyline id="Fill-38" fill="#00B4F5" points="78.864 136.671 76.351 136.671 73.186 123.291 69.905 136.671 67.392 136.671 63.646 121.15 65.74 121.15 68.695 134.507 71.999 121.15 74.489 121.15 77.724 134.507 80.702 121.15 82.633 121.15 78.864 136.671"></polyline>
                        <path d="M84.628,136.671 L86.606,136.671 L86.606,125.408 L84.628,125.408 L84.628,136.671 L84.628,136.671 Z M85.606,123.035 C84.93,123.035 84.395,122.5 84.395,121.825 C84.395,121.15 84.93,120.615 85.606,120.615 C86.28,120.615 86.815,121.15 86.815,121.825 C86.815,122.5 86.28,123.035 85.606,123.035 L85.606,123.035 L85.606,123.035 Z" id="Fill-39" fill="#00B4F5"></path>
                        <polyline id="Fill-40" fill="#00B4F5" points="91.631 122.872 91.631 127.759 97.588 127.759 97.588 129.434 91.631 129.434 91.631 136.671 89.56 136.671 89.56 121.15 97.96 121.15 97.96 122.872 91.631 122.872"></polyline>
                        <path d="M99.911,136.671 L101.889,136.671 L101.889,125.408 L99.911,125.408 L99.911,136.671 L99.911,136.671 Z M100.889,123.035 C100.213,123.035 99.678,122.5 99.678,121.825 C99.678,121.15 100.213,120.615 100.889,120.615 C101.563,120.615 102.099,121.15 102.099,121.825 C102.099,122.5 101.563,123.035 100.889,123.035 L100.889,123.035 L100.889,123.035 Z" id="Fill-41" fill="#00B4F5"></path>
                        <path d="M105.75,136.857 C105.005,136.857 104.4,136.252 104.4,135.508 C104.4,134.763 105.005,134.181 105.75,134.181 C106.495,134.181 107.076,134.763 107.076,135.508 C107.076,136.252 106.495,136.857 105.75,136.857" id="Fill-42" fill="#00B4F5"></path>
                        <polyline id="Fill-43" fill="#00B4F5" points="115.008 136.671 115.008 121.15 123.594 121.15 123.594 122.872 117.055 122.872 117.055 127.759 123.199 127.759 123.199 129.434 117.055 129.434 117.055 134.902 123.781 134.902 123.781 136.671 115.008 136.671"></polyline>
                        <polyline id="Fill-44" fill="#00B4F5" points="131.246 136.671 129.152 136.671 124.8 125.408 126.894 125.408 130.292 134.554 133.666 125.408 135.621 125.408 131.246 136.671"></polyline>
                        <path d="M141.876,126.688 C140.108,126.688 138.782,127.991 138.619,130.016 L144.576,130.016 C144.576,128.713 143.97,126.688 141.876,126.688 L141.876,126.688 L141.876,126.688 Z M146.437,131.575 L138.595,131.575 C138.572,133.506 139.689,135.251 142.132,135.251 C143.901,135.251 145.111,134.483 145.321,134.367 L146.065,135.717 C145.878,135.856 144.343,136.927 141.969,136.927 C138.549,136.927 136.618,134.46 136.618,131.109 C136.618,127.526 138.711,125.105 141.853,125.105 C144.692,125.105 146.484,127.2 146.484,130.737 C146.484,130.97 146.437,131.365 146.437,131.575 L146.437,131.575 L146.437,131.575 Z" id="Fill-45" fill="#00B4F5"></path>
                        <path d="M154.694,126.897 C154.554,126.874 154.206,126.828 153.856,126.828 C151.646,126.828 150.715,128.434 150.529,128.666 L150.529,136.671 L148.55,136.671 L148.55,125.408 L150.319,125.408 L150.319,126.874 C150.436,126.734 151.668,125.105 153.95,125.105 C154.787,125.105 155.089,125.292 155.16,125.315 L154.694,126.897" id="Fill-46" fill="#00B4F5"></path>
                        <path d="M162.534,137.23 C161.766,139.23 161.231,140.185 160.486,140.93 C159.881,141.534 158.857,142 157.554,142 C156.25,142 155.39,141.534 155.274,141.487 L155.832,139.998 C155.995,140.045 156.577,140.324 157.46,140.324 C158.182,140.324 158.788,140.092 159.207,139.673 C159.858,139.022 160.23,138.044 160.696,136.857 L156.018,125.408 L158.159,125.408 L161.743,134.53 L165,125.408 L167.001,125.408 L162.534,137.23" id="Fill-47" fill="#00B4F5"></path>
                        <polyline id="Fill-48" fill="#00B4F5" points="180.983 136.671 178.749 136.671 176.189 127.433 173.629 136.671 171.442 136.671 168.325 125.408 170.279 125.408 172.653 134.6 175.189 125.408 177.376 125.408 179.889 134.6 182.333 125.408 184.217 125.408 180.983 136.671"></polyline>
                        <path d="M193.31,136.671 L193.31,130.272 C193.31,128.853 193.287,127.922 192.705,127.34 C192.403,127.037 191.821,126.781 191.123,126.781 C189.68,126.781 188.26,127.688 188.167,127.759 L188.167,136.671 L186.189,136.671 L186.189,119.894 L188.167,119.894 L188.167,126.106 C188.284,126.014 189.773,125.105 191.471,125.105 C193.031,125.105 193.822,125.734 194.171,126.083 C195.242,127.153 195.288,128.317 195.288,130.132 L195.288,136.671 L193.31,136.671" id="Fill-49" fill="#00B4F5"></path>
                        <path d="M202.475,126.688 C200.707,126.688 199.38,127.991 199.217,130.016 L205.174,130.016 C205.174,128.713 204.569,126.688 202.475,126.688 L202.475,126.688 L202.475,126.688 Z M207.036,131.575 L199.194,131.575 C199.17,133.506 200.288,135.251 202.731,135.251 C204.5,135.251 205.709,134.483 205.918,134.367 L206.664,135.717 C206.477,135.856 204.942,136.927 202.568,136.927 C199.148,136.927 197.216,134.46 197.216,131.109 C197.216,127.526 199.31,125.105 202.452,125.105 C205.291,125.105 207.083,127.2 207.083,130.737 C207.083,130.97 207.036,131.365 207.036,131.575 L207.036,131.575 L207.036,131.575 Z" id="Fill-50" fill="#00B4F5"></path>
                        <path d="M215.292,126.897 C215.153,126.874 214.804,126.828 214.455,126.828 C212.245,126.828 211.313,128.434 211.127,128.666 L211.127,136.671 L209.149,136.671 L209.149,125.408 L210.917,125.408 L210.917,126.874 C211.035,126.734 212.267,125.105 214.548,125.105 C215.385,125.105 215.688,125.292 215.758,125.315 L215.292,126.897" id="Fill-51" fill="#00B4F5"></path>
                        <path d="M221.411,126.688 C219.642,126.688 218.316,127.991 218.153,130.016 L224.11,130.016 C224.11,128.713 223.504,126.688 221.411,126.688 L221.411,126.688 L221.411,126.688 Z M225.971,131.575 L218.129,131.575 C218.106,133.506 219.223,135.251 221.667,135.251 C223.435,135.251 224.645,134.483 224.854,134.367 L225.599,135.717 C225.413,135.856 223.877,136.927 221.503,136.927 C218.083,136.927 216.152,134.46 216.152,131.109 C216.152,127.526 218.246,125.105 221.387,125.105 C224.226,125.105 226.018,127.2 226.018,130.737 C226.018,130.97 225.971,131.365 225.971,131.575 L225.971,131.575 L225.971,131.575 Z" id="Fill-52" fill="#00B4F5"></path>
                        <path d="M229.318,136.857 C228.574,136.857 227.968,136.252 227.968,135.508 C227.968,134.763 228.574,134.181 229.318,134.181 C230.063,134.181 230.645,134.763 230.645,135.508 C230.645,136.252 230.063,136.857 229.318,136.857" id="Fill-53" fill="#00B4F5"></path>
                    </g>
                </g>
            </g>
        </g>
    </g>
</svg>