<?xml version="1.0" encoding="UTF-8" standalone="no"?>
<svg width="49px" height="65px" viewBox="0 0 49 65" version="1.1" xmlns="http://www.w3.org/2000/svg" xmlns:xlink="http://www.w3.org/1999/xlink">
    <!-- Generator: Sketch 3.8.2 (29753) - http://www.bohemiancoding.com/sketch -->
    <title>parentalControls</title>
    <desc>Created with Sketch.</desc>
    <defs></defs>
    <g id="Orbi-Web-UI" stroke="none" stroke-width="1" fill="none" fill-rule="evenodd">
        <g id="Basic" transform="translate(-307.000000, -365.000000)">
            <g id="parentalControls" transform="translate(294.000000, 360.000000)">
                <rect id="Rectangle-46" x="0" y="0" width="75" height="75"></rect>
                <path d="M58.5948528,54.4 L62,54.4 L62,42.2666667 C62,40.3520795 60.4754637,38.8 58.5948528,38.8 L50.0819848,38.8 C49.8399136,38.8030533 49.6039828,38.8318936 49.3767637,38.8841324 L49.3730745,38.8727784 L49.1686989,38.939184 C49.1205682,38.9536173 49.0728861,38.9691162 49.0256787,38.9856541 L43.3528193,40.8288779 C43.3263043,40.7929631 43.2992118,40.7575191 43.2715561,40.7225601 L36.0469766,26.5435247 C35.9150446,26.1982574 35.7473873,25.8706624 35.5485288,25.5652656 L35.5361509,25.5409726 L35.5335028,25.5423218 C34.6040624,24.1312431 33.0060545,23.2 31.1906548,23.2 L18.1973299,23.2 C15.3269239,23.2 13,25.5281193 13,28.4 L13,46.6 L18.1973299,46.6 L18.1973299,70 L31.1906548,70 L31.1906548,34.1846107 L36.667762,44.9340388 C36.7161986,45.0402234 36.7690503,45.143875 36.826077,45.2447496 L36.8524956,45.296599 L36.8551176,45.295263 C37.5395182,46.4660304 38.7913511,47.2499737 40.2222487,47.2499737 C41.0987526,47.2499737 41.908067,46.9558194 42.5609277,46.4587868 L50.0819848,44.0150472 L50.0819848,70 L58.5948528,70 L58.5948528,54.4 Z M24.6939924,18 C28.282,18 31.1906548,15.0898509 31.1906548,11.5 C31.1906548,7.91014913 28.282,5 24.6939924,5 C21.1059848,5 18.1973299,7.91014913 18.1973299,11.5 C18.1973299,15.0898509 21.1059848,18 24.6939924,18 Z M54.3384188,35.3333333 C51.9876552,35.3333333 50.0819848,33.3932339 50.0819848,31 C50.0819848,28.6067661 51.9876552,26.6666667 54.3384188,26.6666667 C56.6891824,26.6666667 58.5948528,28.6067661 58.5948528,31 C58.5948528,33.3932339 56.6891824,35.3333333 54.3384188,35.3333333 Z" id="Combined-Shape" fill="#882EA3"></path>
            </g>
        </g>
    </g>
</svg>