<?xml version="1.0" encoding="UTF-8" standalone="no"?>
<svg width="69px" height="50px" viewBox="0 0 69 50" version="1.1" xmlns="http://www.w3.org/2000/svg" xmlns:xlink="http://www.w3.org/1999/xlink">
    <!-- Generator: Sketch 3.8.2 (29753) - http://www.bohemiancoding.com/sketch -->
    <title>Icon-24px</title>
    <desc>Created with Sketch.</desc>
    <defs></defs>
    <g id="Orbi-Web-UI" stroke="none" stroke-width="1" fill="none" fill-rule="evenodd">
        <g id="Basic" transform="translate(-490.000000, -180.000000)">
            <g id="Icon-24px" transform="translate(487.000000, 167.000000)">
                <polygon id="Shape" points="0 0 75 0 75 75 0 75"></polygon>
                <path d="M3.125,28.125 L9.375,34.375 C24.90625,18.84375 50.09375,18.84375 65.625,34.375 L71.875,28.125 C52.90625,9.15625 22.125,9.15625 3.125,28.125 L3.125,28.125 L3.125,28.125 Z M28.125,53.125 L37.5,62.5 L46.875,53.125 C41.71875,47.9375 33.3125,47.9375 28.125,53.125 L28.125,53.125 L28.125,53.125 Z M15.625,40.625 L21.875,46.875 C30.5,38.25 44.5,38.25 53.125,46.875 L59.375,40.625 C47.3125,28.5625 27.71875,28.5625 15.625,40.625 L15.625,40.625 L15.625,40.625 Z" id="Shape" fill="#882EA3"></path>
            </g>
        </g>
    </g>
</svg>