<?xml version="1.0" encoding="UTF-8" standalone="no"?>
<svg width="226px" height="96px" viewBox="0 0 226 96" version="1.1" xmlns="http://www.w3.org/2000/svg" xmlns:xlink="http://www.w3.org/1999/xlink">
    <!-- Generator: Sketch 3.7 (28169) - http://www.bohemiancoding.com/sketch -->
    <title>Group 4</title>
    <desc>Created with Sketch.</desc>
    <defs>
        <path d="M168.455463,16.9125475 C174.766466,15.6958175 216.274201,15.6958175 222.378279,16.9125475 C226.438011,22.3202366 225.984912,89.2639913 225.984912,89.2639913 C225.975756,92.9841862 222.948492,96 219.218726,96 L171.82196,96 C168.094255,96 165.052076,92.9876779 165.036953,89.2639913 C165.036953,89.2639913 164.395731,22.3202366 168.455463,16.9125475 Z" id="path-1"></path>
        <mask id="mask-2" maskContentUnits="userSpaceOnUse" maskUnits="objectBoundingBox" x="0" y="0" width="61" height="80" fill="white">
            <use xlink:href="#path-1"></use>
        </mask>
        <rect id="path-3" x="4" y="0" width="10" height="12"></rect>
        <mask id="mask-4" maskContentUnits="userSpaceOnUse" maskUnits="objectBoundingBox" x="0" y="0" width="10" height="12" fill="white">
            <use xlink:href="#path-3"></use>
        </mask>
    </defs>
    <g id="Page-1" stroke="none" stroke-width="1" fill="none" fill-rule="evenodd">
        <g id="Desktop-HD-Copy-8" transform="translate(-607.000000, -239.000000)">
            <g id="Group-4" transform="translate(607.000000, 239.000000)">
                <use id="Rectangle-85" stroke="#00B4F5" mask="url(#mask-2)" stroke-width="4" fill="#FFFFFF" xlink:href="#path-1"></use>
                <g id="Page-1" transform="translate(176.000000, 49.000000)" fill="#00B4F5">
                    <path d="M5.81307432,14.6225237 C3.28550601,14.6225237 1.23716066,12.4783387 1.23716066,9.83445317 C1.23716066,7.18969711 3.28550601,5.04638261 5.81307432,5.04638261 C8.33981065,5.04638261 10.388988,7.18969711 10.388988,9.83445317 C10.388988,12.4783387 8.33981065,14.6225237 5.81307432,14.6225237 M5.82389012,3.72748681 C2.6074388,3.72748681 0,6.45581647 0,9.8213948 C0,13.1869731 2.6074388,15.9153028 5.82389012,15.9153028 C9.04034143,15.9153028 11.6477802,13.1869731 11.6477802,9.8213948 C11.6477802,6.45581647 9.04034143,3.72748681 5.82389012,3.72748681" id="Fill-1"></path>
                    <path d="M18.7529262,3.72748681 L18.7529262,5.04725317 C18.7529262,5.04638261 18.710495,5.04638261 18.6930233,5.04638261 C16.1696149,5.04638261 14.1770125,7.18273264 14.0938141,9.8213948 L14.0938141,15.9414195 L12.9290361,15.9414195 L12.9290361,9.8213948 C12.9290361,6.45581647 15.5081874,3.72748681 18.7529262,3.72748681" id="Fill-3"></path>
                    <path d="M25.6143007,14.6225237 C23.0867324,14.6225237 21.038387,12.4783387 21.038387,9.83445317 C21.038387,7.18969711 23.0867324,5.04638261 25.6143007,5.04638261 C28.141037,5.04638261 30.1902144,7.18969711 30.1902144,9.83445317 C30.1902144,12.4783387 28.141037,14.6225237 25.6143007,14.6225237 M21.038387,6.06574939 C22.1044711,4.64222345 23.7627009,3.72748681 25.6251165,3.72748681 C28.8415678,3.72748681 31.4490066,6.45581647 31.4490066,9.8213948 C31.4490066,13.1869731 28.8415678,15.9153028 25.6251165,15.9153028 C22.4252102,15.9153028 19.8280671,13.2149692 19.8014331,9.87328007 L19.8012264,9.87328007 L19.8012264,0.0102029431 L21.038387,0.0102029431 L21.038387,6.06574939 Z" id="Combined-Shape"></path>
                    <path d="M33.9586041,15.9671706 L32.7214434,15.9671706 L32.7214434,3.7274694 L33.9586041,3.7274694 L33.9586041,15.9671706 Z M33.3412218,0.0122574606 C33.8007267,0.0122574606 34.1732061,0.402006404 34.1732061,0.882815744 C34.1732061,1.36362508 33.8007267,1.75337403 33.3412218,1.75337403 C32.8817169,1.75337403 32.5092375,1.36362508 32.5092375,0.882815744 C32.5092375,0.402006404 32.8817169,0.0122574606 33.3412218,0.0122574606 Z" id="Combined-Shape"></path>
                    <text id="TM" font-family="MyriadPro-Regular, Myriad Pro" font-size="3.03557312" font-weight="normal">
                        <tspan x="35.3111788" y="15.2917954">TM</tspan>
                    </text>
                </g>
                <g id="Group-2" transform="translate(0.000000, 18.000000)" fill="#00B4F5">
                    <path d="M37.5,73.1707317 C57.2004011,73.1707317 73.1707317,57.2004011 73.1707317,37.5 C73.1707317,17.7995989 57.2004011,1.82926829 37.5,1.82926829 C17.7995989,1.82926829 1.82926829,17.7995989 1.82926829,37.5 C1.82926829,57.2004011 17.7995989,73.1707317 37.5,73.1707317 L37.5,73.1707317 Z M37.5,75 L37.5,75 C16.7893219,75 0,58.2106781 0,37.5 C0,16.7893219 16.7893219,0 37.5,0 C58.2106781,0 75,16.7893219 75,37.5 C75,58.2106781 58.2106781,75 37.5,75 L37.5,75 Z" id="Oval-14"></path>
                    <circle id="Oval-15" opacity="0.1" cx="37.5" cy="37.5" r="36.5853659"></circle>
                    <rect id="Rectangle-62" x="36.5853659" y="0.914634146" width="1.82926829" height="73.1707317"></rect>
                    <rect id="Rectangle-62" transform="translate(37.500000, 37.500000) rotate(-270.000000) translate(-37.500000, -37.500000) " x="36.5853659" y="0.914634146" width="1.82926829" height="73.1707317"></rect>
                    <rect id="Rectangle-62" transform="translate(37.500000, 20.121951) rotate(-270.000000) translate(-37.500000, -20.121951) " x="36.5853659" y="-11.8902439" width="1.82926829" height="64.0243902"></rect>
                    <rect id="Rectangle-62" transform="translate(37.500000, 54.878049) rotate(-270.000000) translate(-37.500000, -54.878049) " x="36.5853659" y="22.8658537" width="1.82926829" height="64.0243902"></rect>
                    <path d="M37.2226796,0 C37.038775,0.0585150873 36.7171453,0.176933303 36.2774029,0.363966607 C35.5582385,0.669844951 34.7605698,1.06170671 33.9041072,1.54833313 C31.4689996,2.93191701 29.0379652,4.79939343 26.7713219,7.22058063 C20.3234473,14.1080831 16.4634146,24.0213487 16.4634146,37.4569443 C16.4634146,50.8925399 20.3234473,60.8058056 26.7713219,67.693308 C29.0379652,70.1144952 31.4689996,71.9819716 33.9041072,73.3655555 C34.7605698,73.8521819 35.5582385,74.2440437 36.2774029,74.549922 C36.7171453,74.7369553 37.038775,74.8553735 37.2226796,74.9138886 L37.7773204,73.1707317 C37.6468195,73.1292087 37.3789389,73.0305799 36.9933669,72.8665867 C36.3370073,72.5874207 35.6019493,72.226317 34.807783,71.7750862 C32.5268083,70.4790778 30.2417604,68.7237456 28.1067269,66.4431416 C21.978382,59.896955 18.2926829,50.4314097 18.2926829,37.4569443 C18.2926829,24.4824789 21.978382,15.0169336 28.1067269,8.47074701 C30.2417604,6.19014306 32.5268083,4.43481079 34.807783,3.13880244 C35.6019493,2.68757159 36.3370073,2.32646793 36.9933669,2.04730197 C37.3789389,1.88330869 37.6468195,1.78467994 37.7773204,1.74315691 L37.2226796,0 L37.2226796,0 Z" id="Path-125"></path>
                    <path d="M58.2592649,0 C58.0753604,0.0585150873 57.7537307,0.176933303 57.3139882,0.363966607 C56.5948239,0.669844951 55.7971551,1.06170671 54.9406926,1.54833313 C52.505585,2.93191701 50.0745506,4.79939343 47.8079073,7.22058063 C41.3600327,14.1080831 37.5,24.0213487 37.5,37.4569443 C37.5,50.8925399 41.3600327,60.8058056 47.8079073,67.693308 C50.0745506,70.1144952 52.505585,71.9819716 54.9406926,73.3655555 C55.7971551,73.8521819 56.5948239,74.2440437 57.3139882,74.549922 C57.7537307,74.7369553 58.0753604,74.8553735 58.2592649,74.9138886 L58.8139058,73.1707317 C58.6834049,73.1292087 58.4155243,73.0305799 58.0299523,72.8665867 C57.3735926,72.5874207 56.6385347,72.226317 55.8443684,71.7750862 C53.5633937,70.4790778 51.2783457,68.7237456 49.1433123,66.4431416 C43.0149673,59.896955 39.3292683,50.4314097 39.3292683,37.4569443 C39.3292683,24.4824789 43.0149673,15.0169336 49.1433123,8.47074701 C51.2783457,6.19014306 53.5633937,4.43481079 55.8443684,3.13880244 C56.6385347,2.68757159 57.3735926,2.32646793 58.0299523,2.04730197 C58.4155243,1.88330869 58.6834049,1.78467994 58.8139058,1.74315691 L58.2592649,0 L58.2592649,0 Z" id="Path-125" transform="translate(48.156953, 37.456944) scale(-1, 1) translate(-48.156953, -37.456944) "></path>
                </g>
                <g id="Group" transform="translate(80.000000, 47.000000)" fill="#00B4F5">
                    <path d="M53,7 C53.0498208,7 53.1606147,7.00328278 53.3233543,7.01361545 C53.6040648,7.03143834 53.9192238,7.06376234 54.2597013,7.11420346 C55.230769,7.25806535 56.1999279,7.5165077 57.0938615,7.91381155 C59.5664815,9.01275376 61,10.9241117 61,14 C61,17.0758883 59.5664815,18.9872462 57.0938615,20.0861885 C56.1999279,20.4834923 55.230769,20.7419347 54.2597013,20.8857965 C53.9192238,20.9362377 53.6040648,20.9685617 53.3233543,20.9863845 C53.1606147,20.9967172 53.0498208,21 53,21 L26,21 C25.6725484,21 25.1322876,21.0343023 24.4472013,21.1357965 C23.308894,21.3044347 22.1686779,21.6084923 21.0938615,22.0861885 C17.9414815,23.4872462 16,26.0758883 16,30 C16,33.9241117 17.9414815,36.5127538 21.0938615,37.9138115 C22.1686779,38.3915077 23.308894,38.6955653 24.4472013,38.8642035 C25.1322876,38.9656977 25.6725484,39 26,39 L78.9931943,39 C79.5492377,39 80,38.5561352 80,38 L80,38 C80,37.4477153 79.5493864,37 78.9931943,37 L26,37 C25.9501792,37 25.8393853,36.9967172 25.6766457,36.9863845 C25.3959352,36.9685617 25.0807762,36.9362377 24.7402987,36.8857965 C23.769231,36.7419347 22.8000721,36.4834923 21.9061385,36.0861885 C19.4335185,34.9872462 18,33.0758883 18,30 C18,26.9241117 19.4335185,25.0127538 21.9061385,23.9138115 C22.8000721,23.5165077 23.769231,23.2580653 24.7402987,23.1142035 C25.0807762,23.0637623 25.3959352,23.0314383 25.6766457,23.0136155 C25.8393853,23.0032828 25.9501792,23 26,23 L53,23 C53.3274516,23 53.8677124,22.9656977 54.5527987,22.8642035 C55.691106,22.6955653 56.8313221,22.3915077 57.9061385,21.9138115 C61.0585185,20.5127538 63,17.9241117 63,14 C63,10.0758883 61.0585185,7.48724624 57.9061385,6.08618845 C56.8313221,5.6084923 55.691106,5.30443465 54.5527987,5.13579654 C53.8677124,5.03430227 53.3274516,5 53,5 L14,5 L14,7 L53,7 Z" id="Path-122" opacity="0.3"></path>
                    <use id="Rectangle-66" stroke="#00B4F5" mask="url(#mask-4)" stroke-width="4" fill-opacity="0.3" xlink:href="#path-3"></use>
                    <rect id="Rectangle-76" x="0" y="2" width="6" height="2"></rect>
                    <rect id="Rectangle-76-Copy" x="0" y="8" width="6" height="2"></rect>
                </g>
                <g id="Group-3" transform="translate(104.000000, 0.000000)">
                    <path d="M16,32 C24.836556,32 32,24.836556 32,16 C32,7.163444 24.836556,0 16,0 C7.163444,0 0,7.163444 0,16 C0,24.836556 7.163444,32 16,32 L16,32 Z M16,30 C8.2680135,30 2,23.7319865 2,16 C2,8.2680135 8.2680135,2 16,2 C23.7319865,2 30,8.2680135 30,16 C30,23.7319865 23.7319865,30 16,30 L16,30 Z" id="Oval-13" fill="#C6EBFF"></path>
                    <path d="M15.3258274,17.6283003 L12.7083089,15.0107818 C12.3109597,14.6134326 11.6843651,14.6200029 11.2938408,15.0105272 C10.9005938,15.4037742 10.9034305,16.0343304 11.2940954,16.4249953 L15.3116078,20.4425077 L15.3438591,20.4102564 L15.3580788,20.424476 L22.0710079,13.7115469 C22.4638974,13.3186574 22.4663517,12.6830381 22.0758274,12.2925138 C21.6825805,11.8992669 21.0499804,11.9041473 20.6567943,12.2973334 L15.3258274,17.6283003 Z" id="Combined-Shape" fill="#BA1CA5"></path>
                </g>
            </g>
        </g>
    </g>
</svg>