<?xml version="1.0" encoding="UTF-8" standalone="no"?>
<svg width="162px" height="22px" viewBox="0 0 162 22" version="1.1" xmlns="http://www.w3.org/2000/svg" xmlns:xlink="http://www.w3.org/1999/xlink">
    <!-- Generator: Sketch 3.7 (28169) - http://www.bohemiancoding.com/sketch -->
    <title>Combined Shape</title>
    <desc>Created with Sketch.</desc>
    <defs></defs>
    <g id="Page-1" stroke="none" stroke-width="1" fill="none" fill-rule="evenodd">
        <g id="Desktop-HD-Copy-11" transform="translate(-639.000000, -180.000000)" fill="#903AAA">
            <path d="M799.162298,186.76968 C799.162298,182.078241 795.69548,180 791.131626,180 L781.777005,180 L781.777005,201.999708 L787.784663,201.999708 L787.784663,193.538484 L788.212888,193.538484 L793.692248,201.999708 L801,201.999708 L794.107673,192.985726 C797.388016,192.428299 799.162298,189.809557 799.162298,186.76968 L799.162298,186.76968 Z M789.328542,189.860338 L787.784663,189.860338 L787.784663,184.380621 L789.504836,184.380621 C791.477813,184.380621 793.150567,184.725876 793.150567,187.122814 C793.150567,189.516542 791.301519,189.860338 789.328542,189.860338 Z M762.60874,180 L754.529485,201.999708 L760.741365,201.999708 L762.06124,197.950625 L770.087258,197.950625 L771.407716,201.999708 L777.615814,201.999708 L769.542377,180 L762.60874,180 Z M763.487299,193.574673 L765.990321,185.895015 L766.157887,185.895015 L768.660908,193.574673 L763.487299,193.574673 Z M737.091072,201.999708 L751.744104,201.999708 L751.744104,197.160887 L743.106294,197.160887 L743.106294,193.358414 L751.380171,193.358414 L751.380171,188.519594 L743.106294,188.519594 L743.106294,184.846701 L751.744104,184.846701 L751.744104,180 L737.091072,180 L737.091072,201.999708 Z M720.788782,193.999554 L725.223119,193.999554 C724.993047,196.378483 723.291223,197.582305 720.844119,197.582305 C717.137889,197.582305 715.28859,194.326079 715.28859,191.132205 C715.28859,187.987556 716.881102,184.628779 720.595238,184.628779 C722.862155,184.628779 724.504826,185.940895 725.278456,187.904968 L730.622995,185.776813 C728.756523,181.921411 725.305989,180 720.853115,180 C713.869722,180 709.434839,184.410822 709.434839,191.102944 C709.434839,197.582305 714.007656,201.979727 720.816587,201.979727 C724.444309,201.979727 727.467411,200.758403 729.588489,197.935357 C731.517932,195.367459 731.741189,192.802296 731.801705,189.793836 L720.788782,189.793836 L720.788782,193.999554 Z M686.955635,184.846701 L692.771291,184.846701 L692.771291,202 L698.87786,202 L698.87786,184.846701 L704.698462,184.846701 L704.698462,180 L686.955635,180 L686.955635,184.846701 Z M683.077735,201.999708 L683.077735,197.160887 L674.443126,197.160887 L674.443126,193.358414 L682.71613,193.358414 L682.71613,188.519594 L674.443126,188.519594 L674.443126,184.846701 L683.077735,184.846701 L683.077735,180 L668.427322,180 L668.427322,201.999708 L683.077735,201.999708 Z M655.023817,193.45093 L654.958944,193.45093 L645.010568,180 L639,180 L639,202 L645.010568,202 L645.010568,188.51901 L645.076023,188.51901 L655.023817,202 L661.032058,202 L661.032058,180 L655.023817,180 L655.023817,193.45093 Z" id="Combined-Shape"></path>
        </g>
    </g>
</svg>