<?xml version="1.0" encoding="UTF-8" standalone="no"?>
<svg width="133px" height="130px" viewBox="0 0 133 130" version="1.1" xmlns="http://www.w3.org/2000/svg" xmlns:xlink="http://www.w3.org/1999/xlink">
    <!-- Generator: Sketch 3.7 (28169) - http://www.bohemiancoding.com/sketch -->
    <title>Group 2</title>
    <desc>Created with Sketch.</desc>
    <defs>
        <path d="M38.4554632,25.9125475 C44.7664655,24.6958175 86.2742006,24.6958175 92.3782793,25.9125475 C96.4380112,31.3202366 95.9849117,98.2639913 95.9849117,98.2639913 C95.9757555,101.984186 92.9484919,105 89.2187265,105 L41.8219597,105 C38.094255,105 35.0520758,101.987678 35.0369529,98.2639913 C35.0369529,98.2639913 34.3957312,31.3202366 38.4554632,25.9125475 Z" id="path-1"></path>
        <mask id="mask-2" maskContentUnits="userSpaceOnUse" maskUnits="objectBoundingBox" x="0" y="0" width="61" height="80" fill="white">
            <use xlink:href="#path-1"></use>
        </mask>
    </defs>
    <g id="Page-1" stroke="none" stroke-width="1" fill="none" fill-rule="evenodd">
        <g id="Desktop-HD-Copy-4" transform="translate(-658.000000, -230.000000)">
            <g id="Group-2" transform="translate(658.000000, 230.000000)">
                <g id="Group">
                    <path d="M65,130 C100.898509,130 130,100.898509 130,65 C130,29.1014913 100.898509,0 65,0 C29.1014913,0 0,29.1014913 0,65 C0,100.898509 29.1014913,130 65,130 Z" id="Mask" fill-opacity="0.1" fill="#00B4F5"></path>
                    <use id="Rectangle-85" stroke="#00B4F5" mask="url(#mask-2)" stroke-width="4" fill="#FFFFFF" xlink:href="#path-1"></use>
                    <path d="M117,41 C125.836556,41 133,33.836556 133,25 C133,16.163444 125.836556,9 117,9 C108.163444,9 101,16.163444 101,25 C101,33.836556 108.163444,41 117,41 L117,41 Z" id="Oval-13" fill="#C6EBFF"></path>
                    <path d="M117,39 C109.268014,39 103,32.7319865 103,25 C103,17.2680135 109.268014,11 117,11 C124.731986,11 131,17.2680135 131,25 C131,32.7319865 124.731986,39 117,39 L117,39 Z" id="Path" fill="#FFFFFF"></path>
                    <g id="Page-1" transform="translate(49.000000, 59.000000)" fill="#00B4F5">
                        <path d="M4.91875519,12.0635821 C2.78004355,12.0635821 1.04682825,10.2946294 1.04682825,8.11342387 C1.04682825,5.93150011 2.78004355,4.16326565 4.91875519,4.16326565 C7.05676285,4.16326565 8.79068214,5.93150011 8.79068214,8.11342387 C8.79068214,10.2946294 7.05676285,12.0635821 4.91875519,12.0635821 M4.92790702,3.07517662 C2.20629437,3.07517662 0,5.32604859 0,8.10265071 C0,10.8792528 2.20629437,13.1301248 4.92790702,13.1301248 C7.64951967,13.1301248 9.85581404,10.8792528 9.85581404,8.10265071 C9.85581404,5.32604859 7.64951967,3.07517662 4.92790702,3.07517662" id="Fill-1"></path>
                        <path d="M15.8678606,3.07517662 L15.8678606,4.16398387 C15.8678606,4.16326565 15.8319573,4.16326565 15.8171736,4.16326565 C13.6819818,4.16326565 11.9959337,5.92575443 11.925535,8.10265071 L11.925535,13.1516711 L10.9399536,13.1516711 L10.9399536,8.10265071 C10.9399536,5.32604859 13.1223124,3.07517662 15.8678606,3.07517662" id="Fill-3"></path>
                        <path d="M21.6736391,12.0635821 C19.5349274,12.0635821 17.8017121,10.2946294 17.8017121,8.11342387 C17.8017121,5.93150011 19.5349274,4.16326565 21.6736391,4.16326565 C23.8116467,4.16326565 25.545566,5.93150011 25.545566,8.11342387 C25.545566,10.2946294 23.8116467,12.0635821 21.6736391,12.0635821 M17.8017121,5.00424325 C18.7037832,3.82983435 20.1069008,3.07517662 21.6827909,3.07517662 C24.4044035,3.07517662 26.6106979,5.32604859 26.6106979,8.10265071 C26.6106979,10.8792528 24.4044035,13.1301248 21.6827909,13.1301248 C18.9751778,13.1301248 16.7775952,10.9023496 16.7550588,8.14545606 L16.7548839,8.14545606 L16.7548839,0.00841742804 L17.8017121,0.00841742804 L17.8017121,5.00424325 Z" id="Combined-Shape"></path>
                        <path d="M28.7342034,13.1729158 L27.6873752,13.1729158 L27.6873752,3.07516226 L28.7342034,3.07516226 L28.7342034,13.1729158 Z M28.2118031,0.010112405 C28.6006149,0.010112405 28.9157898,0.331655283 28.9157898,0.728322989 C28.9157898,1.12499069 28.6006149,1.44653357 28.2118031,1.44653357 C27.8229912,1.44653357 27.5078163,1.12499069 27.5078163,0.728322989 C27.5078163,0.331655283 27.8229912,0.010112405 28.2118031,0.010112405 Z" id="Combined-Shape"></path>
                        <text id="TM" font-family="MyriadPro-Regular, Myriad Pro" font-size="2.56856187" font-weight="normal">
                            <tspan x="29.8786898" y="12.9657312">TM</tspan>
                        </text>
                    </g>
                </g>
                <rect id="Rectangle-108" fill="#BA1CA5" x="116" y="29" width="2" height="2"></rect>
                <rect id="Rectangle-108" fill="#BA1CA5" x="116" y="19" width="2" height="8"></rect>
            </g>
        </g>
    </g>
</svg>