<?xml version="1.0" encoding="UTF-8" standalone="no"?>
<svg width="133px" height="130px" viewBox="0 0 133 130" version="1.1" xmlns="http://www.w3.org/2000/svg" xmlns:xlink="http://www.w3.org/1999/xlink">
    <!-- Generator: Sketch 3.7 (28169) - http://www.bohemiancoding.com/sketch -->
    <title>Group 2</title>
    <desc>Created with Sketch.</desc>
    <defs>
        <path d="M38.4554632,25.9125475 C44.7664655,24.6958175 86.2742006,24.6958175 92.3782793,25.9125475 C96.4380112,31.3202366 95.9849117,98.2639913 95.9849117,98.2639913 C95.9757555,101.984186 92.9484919,105 89.2187265,105 L41.8219597,105 C38.094255,105 35.0520758,101.987678 35.0369529,98.2639913 C35.0369529,98.2639913 34.3957312,31.3202366 38.4554632,25.9125475 Z" id="path-1"></path>
        <mask id="mask-2" maskContentUnits="userSpaceOnUse" maskUnits="objectBoundingBox" x="0" y="0" width="61" height="80" fill="white">
            <use xlink:href="#path-1"></use>
        </mask>
    </defs>
    <g id="Page-1" stroke="none" stroke-width="1" fill="none" fill-rule="evenodd">
        <g id="Desktop-HD-Copy-20" transform="translate(-658.000000, -230.000000)">
            <g id="Group-2" transform="translate(658.000000, 230.000000)">
                <path d="M65,130 C100.898509,130 130,100.898509 130,65 C130,29.1014913 100.898509,0 65,0 C29.1014913,0 0,29.1014913 0,65 C0,100.898509 29.1014913,130 65,130 Z" id="Mask" fill-opacity="0.1" fill="#00B4F5"></path>
                <use id="Rectangle-85" stroke="#00B4F5" mask="url(#mask-2)" stroke-width="4" fill="#FFFFFF" xlink:href="#path-1"></use>
                <path d="M51.8130743,72.6225237 C49.285506,72.6225237 47.2371607,70.4783387 47.2371607,67.8344532 C47.2371607,65.1896971 49.285506,63.0463826 51.8130743,63.0463826 C54.3398106,63.0463826 56.388988,65.1896971 56.388988,67.8344532 C56.388988,70.4783387 54.3398106,72.6225237 51.8130743,72.6225237 M51.8238901,61.7274868 C48.6074388,61.7274868 46,64.4558165 46,67.8213948 C46,71.1869731 48.6074388,73.9153028 51.8238901,73.9153028 C55.0403414,73.9153028 57.6477802,71.1869731 57.6477802,67.8213948 C57.6477802,64.4558165 55.0403414,61.7274868 51.8238901,61.7274868" id="Fill-1" fill="#00B4F5"></path>
                <path d="M64.7529262,61.7274868 L64.7529262,63.0472532 C64.7529262,63.0463826 64.710495,63.0463826 64.6930233,63.0463826 C62.1696149,63.0463826 60.1770125,65.1827326 60.0938141,67.8213948 L60.0938141,73.9414195 L58.9290361,73.9414195 L58.9290361,67.8213948 C58.9290361,64.4558165 61.5081874,61.7274868 64.7529262,61.7274868" id="Fill-3" fill="#00B4F5"></path>
                <path d="M71.6143007,72.6225237 C69.0867324,72.6225237 67.038387,70.4783387 67.038387,67.8344532 C67.038387,65.1896971 69.0867324,63.0463826 71.6143007,63.0463826 C74.141037,63.0463826 76.1902144,65.1896971 76.1902144,67.8344532 C76.1902144,70.4783387 74.141037,72.6225237 71.6143007,72.6225237 M67.038387,64.0657494 C68.1044711,62.6422235 69.7627009,61.7274868 71.6251165,61.7274868 C74.8415678,61.7274868 77.4490066,64.4558165 77.4490066,67.8213948 C77.4490066,71.1869731 74.8415678,73.9153028 71.6251165,73.9153028 C68.4252102,73.9153028 65.8280671,71.2149692 65.8014331,67.8732801 L65.8012264,67.8732801 L65.8012264,58.0102029 L67.038387,58.0102029 L67.038387,64.0657494 Z" id="Combined-Shape" fill="#00B4F5"></path>
                <path d="M79.9586041,73.9671706 L78.7214434,73.9671706 L78.7214434,61.7274694 L79.9586041,61.7274694 L79.9586041,73.9671706 Z M79.3412218,58.0122575 C79.8007267,58.0122575 80.1732061,58.4020064 80.1732061,58.8828157 C80.1732061,59.3636251 79.8007267,59.753374 79.3412218,59.753374 C78.8817169,59.753374 78.5092375,59.3636251 78.5092375,58.8828157 C78.5092375,58.4020064 78.8817169,58.0122575 79.3412218,58.0122575 Z" id="Combined-Shape" fill="#00B4F5"></path>
                <text id="TM" font-family="MyriadPro-Regular, Myriad Pro" font-size="3.03557312" font-weight="normal" fill="#00B4F5">
                    <tspan x="81.3111788" y="73.2917954">TM</tspan>
                </text>
                <path d="M117,41 C125.836556,41 133,33.836556 133,25 C133,16.163444 125.836556,9 117,9 C108.163444,9 101,16.163444 101,25 C101,33.836556 108.163444,41 117,41 L117,41 Z" id="Oval-13" fill="#C6EBFF"></path>
                <path d="M103,25 C103,17.2680135 109.268014,11 117,11 C124.731986,11 131,17.2680135 131,25 C131,32.7319865 124.731986,39 117,39 C109.268014,39 103,32.7319865 103,25 Z" id="Path" fill="#FFFFFF"></path>
                <path d="M115.781987,26.8677731 L113.164468,24.2502546 C112.767119,23.8529054 112.140524,23.8594757 111.75,24.25 C111.356753,24.643247 111.35959,25.2738032 111.750255,25.6644681 L115.767767,29.6819805 L115.800018,29.6497292 L115.814238,29.6639488 L122.527167,22.9510198 C122.920057,22.5581302 122.922511,21.9225109 122.531987,21.5319866 C122.13874,21.1387397 121.50614,21.1436201 121.112953,21.5368062 L115.781987,26.8677731 Z" id="Combined-Shape" fill="#BA1CA5"></path>
            </g>
        </g>
    </g>
</svg>