<?xml version="1.0" encoding="UTF-8" standalone="no"?>
<svg width="130px" height="130px" viewBox="0 0 130 130" version="1.1" xmlns="http://www.w3.org/2000/svg" xmlns:xlink="http://www.w3.org/1999/xlink">
    <!-- Generator: Sketch 3.7 (28169) - http://www.bohemiancoding.com/sketch -->
    <title>Group</title>
    <desc>Created with Sketch.</desc>
    <defs>
        <path d="M42.8323469,32.7528517 C48.0052996,31.7490494 82.0280333,31.7490494 87.0313764,32.7528517 C90.3590256,37.2141952 89.9876302,92.4699576 89.9876302,92.4699576 C89.9801264,95.5241157 87.4987638,98 84.4415791,98 L45.5917703,98 C42.5362746,98 40.0427865,95.5339168 40.0303668,92.4699576 C40.0303668,92.4699576 39.5046977,37.2141952 42.8323469,32.7528517 Z" id="path-1"></path>
        <mask id="mask-2" maskContentUnits="userSpaceOnUse" maskUnits="objectBoundingBox" x="0" y="0" width="50" height="66" fill="white">
            <use xlink:href="#path-1"></use>
        </mask>
    </defs>
    <g id="Page-1" stroke="none" stroke-width="1" fill="none" fill-rule="evenodd">
        <g id="Desktop-HD-Copy" transform="translate(-660.000000, -227.000000)">
            <g id="Group" transform="translate(660.000000, 227.000000)">
                <path d="M65,130 C100.898509,130 130,100.898509 130,65 C130,29.1014913 100.898509,0 65,0 C29.1014913,0 0,29.1014913 0,65 C0,100.898509 29.1014913,130 65,130 Z" id="Mask" fill-opacity="0.1" fill="#00B4F5"></path>
                <use id="Rectangle-85" stroke="#00B4F5" mask="url(#mask-2)" stroke-width="4" fill="#FFFFFF" xlink:href="#path-1"></use>
                <path d="M53.9187552,74.0635821 C51.7800435,74.0635821 50.0468282,72.2946294 50.0468282,70.1134239 C50.0468282,67.9315001 51.7800435,66.1632657 53.9187552,66.1632657 C56.0567629,66.1632657 57.7906821,67.9315001 57.7906821,70.1134239 C57.7906821,72.2946294 56.0567629,74.0635821 53.9187552,74.0635821 M53.927907,65.0751766 C51.2062944,65.0751766 49,67.3260486 49,70.1026507 C49,72.8792528 51.2062944,75.1301248 53.927907,75.1301248 C56.6495197,75.1301248 58.855814,72.8792528 58.855814,70.1026507 C58.855814,67.3260486 56.6495197,65.0751766 53.927907,65.0751766" id="Fill-1" fill="#00B4F5"></path>
                <path d="M64.8678606,65.0751766 L64.8678606,66.1639839 C64.8678606,66.1632657 64.8319573,66.1632657 64.8171736,66.1632657 C62.6819818,66.1632657 60.9959337,67.9257544 60.925535,70.1026507 L60.925535,75.1516711 L59.9399536,75.1516711 L59.9399536,70.1026507 C59.9399536,67.3260486 62.1223124,65.0751766 64.8678606,65.0751766" id="Fill-3" fill="#00B4F5"></path>
                <path d="M70.6736391,74.0635821 C68.5349274,74.0635821 66.8017121,72.2946294 66.8017121,70.1134239 C66.8017121,67.9315001 68.5349274,66.1632657 70.6736391,66.1632657 C72.8116467,66.1632657 74.545566,67.9315001 74.545566,70.1134239 C74.545566,72.2946294 72.8116467,74.0635821 70.6736391,74.0635821 M66.8017121,67.0042432 C67.7037832,65.8298343 69.1069008,65.0751766 70.6827909,65.0751766 C73.4044035,65.0751766 75.6106979,67.3260486 75.6106979,70.1026507 C75.6106979,72.8792528 73.4044035,75.1301248 70.6827909,75.1301248 C67.9751778,75.1301248 65.7775952,72.9023496 65.7550588,70.1454561 L65.7548839,70.1454561 L65.7548839,62.0084174 L66.8017121,62.0084174 L66.8017121,67.0042432 Z" id="Combined-Shape" fill="#00B4F5"></path>
                <path d="M77.7342034,75.1729158 L76.6873752,75.1729158 L76.6873752,65.0751623 L77.7342034,65.0751623 L77.7342034,75.1729158 Z M77.2118031,62.0101124 C77.6006149,62.0101124 77.9157898,62.3316553 77.9157898,62.728323 C77.9157898,63.1249907 77.6006149,63.4465336 77.2118031,63.4465336 C76.8229912,63.4465336 76.5078163,63.1249907 76.5078163,62.728323 C76.5078163,62.3316553 76.8229912,62.0101124 77.2118031,62.0101124 Z" id="Combined-Shape" fill="#00B4F5"></path>
                <text id="TM" font-family="MyriadPro-Regular, Myriad Pro" font-size="2.56856187" font-weight="normal" fill="#00B4F5">
                    <tspan x="78.8786898" y="74.9657312">TM</tspan>
                </text>
            </g>
        </g>
    </g>
</svg>
