<?xml version="1.0" encoding="UTF-8" standalone="no"?>
<svg width="46px" height="87px" viewBox="0 0 46 87" version="1.1" xmlns="http://www.w3.org/2000/svg" xmlns:xlink="http://www.w3.org/1999/xlink">
    <!-- Generator: Sketch 3.7 (28169) - http://www.bohemiancoding.com/sketch -->
    <title>Group 2</title>
    <desc>Created with Sketch.</desc>
    <defs>
        <rect id="path-1" x="10" y="82" width="22" height="2"></rect>
        <mask id="mask-2" maskContentUnits="userSpaceOnUse" maskUnits="objectBoundingBox" x="-2" y="-2" width="26" height="6">
            <rect x="8" y="80" width="26" height="6" fill="white"></rect>
            <use xlink:href="#path-1" fill="black"></use>
        </mask>
        <rect id="path-3" x="0" y="31" width="3" height="7"></rect>
        <mask id="mask-4" maskContentUnits="userSpaceOnUse" maskUnits="objectBoundingBox" x="-2" y="-2" width="7" height="11">
            <rect x="-2" y="29" width="7" height="11" fill="white"></rect>
            <use xlink:href="#path-3" fill="black"></use>
        </mask>
        <rect id="path-5" x="39" y="31" width="3" height="7"></rect>
        <mask id="mask-6" maskContentUnits="userSpaceOnUse" maskUnits="objectBoundingBox" x="-2" y="-2" width="7" height="11">
            <rect x="37" y="29" width="7" height="11" fill="white"></rect>
            <use xlink:href="#path-5" fill="black"></use>
        </mask>
        <path d="M2,57 L40,57 L40,80 L2,80 L2,57 Z M5,26.99923 C5,24.7905162 6.78902751,23 9.0042577,23 L32.9957423,23 C35.2072328,23 37,24.7924676 37,26.99923 L37,43 L5,43 L5,26.99923 Z M17,45 L25,45 L25,55 L17,55 L17,45 Z" id="path-7"></path>
        <mask id="mask-8" maskContentUnits="userSpaceOnUse" maskUnits="objectBoundingBox" x="-2" y="-2" width="42" height="61">
            <rect x="0" y="21" width="42" height="61" fill="white"></rect>
            <use xlink:href="#path-7" fill="black"></use>
        </mask>
        <circle id="path-9" cx="14" cy="34" r="3"></circle>
        <mask id="mask-10" maskContentUnits="userSpaceOnUse" maskUnits="objectBoundingBox" x="-2" y="-2" width="10" height="10">
            <rect x="9" y="29" width="10" height="10" fill="white"></rect>
            <use xlink:href="#path-9" fill="black"></use>
        </mask>
        <circle id="path-11" cx="28" cy="34" r="3"></circle>
        <mask id="mask-12" maskContentUnits="userSpaceOnUse" maskUnits="objectBoundingBox" x="-2" y="-2" width="10" height="10">
            <rect x="23" y="29" width="10" height="10" fill="white"></rect>
            <use xlink:href="#path-11" fill="black"></use>
        </mask>
    </defs>
    <g id="Page-1" stroke="none" stroke-width="1" fill="none" fill-rule="evenodd">
        <g id="Desktop-HD-Copy-11" transform="translate(-697.000000, -265.000000)">
            <g id="Group-2" transform="translate(699.000000, 266.000000)">
                <g id="Rectangle-120-Copy-2">
                    <use fill="#D9F1FF" fill-rule="evenodd" xlink:href="#path-1"></use>
                    <use stroke="#82D3FF" mask="url(#mask-2)" stroke-width="4" xlink:href="#path-1"></use>
                </g>
                <circle id="Oval-69" stroke="#00B4F5" stroke-width="2" opacity="0.1" cx="21" cy="12" r="12"></circle>
                <circle id="Oval-69" stroke="#00B4F5" stroke-width="2" opacity="0.3" cx="21" cy="12" r="7"></circle>
                <g id="Rectangle-120">
                    <use fill="#D9F1FF" fill-rule="evenodd" xlink:href="#path-3"></use>
                    <use stroke="#82D3FF" mask="url(#mask-4)" stroke-width="4" xlink:href="#path-3"></use>
                </g>
                <g id="Rectangle-120-Copy">
                    <use fill="#D9F1FF" fill-rule="evenodd" xlink:href="#path-5"></use>
                    <use stroke="#82D3FF" mask="url(#mask-6)" stroke-width="4" xlink:href="#path-5"></use>
                </g>
                <g id="Combined-Shape">
                    <use fill="#FFFFFF" fill-rule="evenodd" xlink:href="#path-7"></use>
                    <use stroke="#00B4F5" mask="url(#mask-8)" stroke-width="4" xlink:href="#path-7"></use>
                </g>
                <rect id="Rectangle-122" fill="#00B4F5" x="20" y="12" width="2" height="11"></rect>
                <g id="Oval-65">
                    <use fill="#FFFFFF" fill-rule="evenodd" xlink:href="#path-9"></use>
                    <use stroke="#BA1CA5" mask="url(#mask-10)" stroke-width="4" xlink:href="#path-9"></use>
                </g>
                <g id="Oval-65-Copy">
                    <use fill="#FFFFFF" fill-rule="evenodd" xlink:href="#path-11"></use>
                    <use stroke="#BA1CA5" mask="url(#mask-12)" stroke-width="4" xlink:href="#path-11"></use>
                </g>
                <rect id="Rectangle-114" fill="#00B4F5" x="0" y="62" width="8" height="2"></rect>
                <rect id="Rectangle-114-Copy-2" fill="#00B4F5" x="34" y="62" width="8" height="2"></rect>
                <rect id="Rectangle-114-Copy" fill="#00B4F5" x="0" y="73" width="8" height="2"></rect>
                <rect id="Rectangle-114-Copy-3" fill="#00B4F5" x="34" y="73" width="8" height="2"></rect>
            </g>
        </g>
    </g>
</svg>