<?xml version="1.0" encoding="UTF-8" standalone="no"?>
<svg width="152px" height="150px" viewBox="0 0 152 150" version="1.1" xmlns="http://www.w3.org/2000/svg" xmlns:xlink="http://www.w3.org/1999/xlink">
    <!-- Generator: Sketch 3.7 (28169) - http://www.bohemiancoding.com/sketch -->
    <title>Group</title>
    <desc>Created with Sketch.</desc>
    <defs>
        <path d="M75,150 C116.421356,150 150,116.421356 150,75 C150,33.5786438 116.421356,0 75,0 C33.5786438,0 0,33.5786438 0,75 C0,116.421356 33.5786438,150 75,150 Z M75,145 C113.659932,145 145,113.659932 145,75 C145,36.3400675 113.659932,5 75,5 C36.3400675,5 5,36.3400675 5,75 C5,113.659932 36.3400675,145 75,145 Z" id="path-1"></path>
        <path d="M75.5,133 C107.256373,133 133,107.256373 133,75.5 C133,43.7436269 107.256373,18 75.5,18 C43.7436269,18 18,43.7436269 18,75.5 C18,107.256373 43.7436269,133 75.5,133 Z M75.5,128 C104.494949,128 128,104.494949 128,75.5 C128,46.5050506 104.494949,23 75.5,23 C46.5050506,23 23,46.5050506 23,75.5 C23,104.494949 46.5050506,128 75.5,128 Z" id="path-3"></path>
        <path d="M102.832347,42.7528517 C108.0053,41.7490494 142.028033,41.7490494 147.031376,42.7528517 C150.359026,47.2141952 149.98763,102.469958 149.98763,102.469958 C149.980126,105.524116 147.498764,108 144.441579,108 L105.59177,108 C102.536275,108 100.042787,105.533917 100.030367,102.469958 C100.030367,102.469958 99.5046977,47.2141952 102.832347,42.7528517 Z" id="path-5"></path>
        <mask id="mask-6" maskContentUnits="userSpaceOnUse" maskUnits="objectBoundingBox" x="0" y="0" width="50" height="66" fill="white">
            <use xlink:href="#path-5"></use>
        </mask>
        <path d="M2.83234688,42.7528517 C8.00529961,41.7490494 42.0280333,41.7490494 47.0313764,42.7528517 C50.3590256,47.2141952 49.9876302,102.469958 49.9876302,102.469958 C49.9801264,105.524116 47.4987638,108 44.4415791,108 L5.59177026,108 C2.53627456,108 0.0427865446,105.533917 0.0303667801,102.469958 C0.0303667801,102.469958 -0.495302294,47.2141952 2.83234688,42.7528517 Z" id="path-7"></path>
        <mask id="mask-8" maskContentUnits="userSpaceOnUse" maskUnits="objectBoundingBox" x="0" y="0" width="50" height="66" fill="white">
            <use xlink:href="#path-7"></use>
        </mask>
    </defs>
    <g id="Page-1" stroke="none" stroke-width="1" fill="none" fill-rule="evenodd">
        <g id="Desktop-HD-Copy-9" transform="translate(-648.000000, -220.000000)">
            <g id="Group" transform="translate(648.000000, 220.000000)">
                <g id="Rectangle-87-+-Rectangle-87-Copy-Mask" transform="translate(2.000000, 0.000000)">
                    <mask id="mask-2" fill="white">
                        <use xlink:href="#path-1"></use>
                    </mask>
                    <use id="Combined-Shape" fill="#00B4F5" opacity="0.1" xlink:href="#path-1"></use>
                    <mask id="mask-4" fill="white">
                        <use xlink:href="#path-3"></use>
                    </mask>
                    <use id="Combined-Shape" fill="#00B4F5" opacity="0.2" xlink:href="#path-3"></use>
                </g>
                <use id="Rectangle-85" stroke="#00B4F5" mask="url(#mask-6)" stroke-width="3.27868852" fill="#FFFFFF" xlink:href="#path-5"></use>
                <use id="Rectangle-85-Copy" stroke="#00B4F5" mask="url(#mask-8)" stroke-width="3.27868852" fill="#FFFFFF" xlink:href="#path-7"></use>
                <g id="Page-1" transform="translate(9.000000, 69.000000)" fill="#00B4F5">
                    <path d="M4.91875519,12.0635821 C2.78004355,12.0635821 1.04682825,10.2946294 1.04682825,8.11342387 C1.04682825,5.93150011 2.78004355,4.16326565 4.91875519,4.16326565 C7.05676285,4.16326565 8.79068214,5.93150011 8.79068214,8.11342387 C8.79068214,10.2946294 7.05676285,12.0635821 4.91875519,12.0635821 M4.92790702,3.07517662 C2.20629437,3.07517662 0,5.32604859 0,8.10265071 C0,10.8792528 2.20629437,13.1301248 4.92790702,13.1301248 C7.64951967,13.1301248 9.85581404,10.8792528 9.85581404,8.10265071 C9.85581404,5.32604859 7.64951967,3.07517662 4.92790702,3.07517662" id="Fill-1"></path>
                    <path d="M15.8678606,3.07517662 L15.8678606,4.16398387 C15.8678606,4.16326565 15.8319573,4.16326565 15.8171736,4.16326565 C13.6819818,4.16326565 11.9959337,5.92575443 11.925535,8.10265071 L11.925535,13.1516711 L10.9399536,13.1516711 L10.9399536,8.10265071 C10.9399536,5.32604859 13.1223124,3.07517662 15.8678606,3.07517662" id="Fill-3"></path>
                    <path d="M21.6736391,12.0635821 C19.5349274,12.0635821 17.8017121,10.2946294 17.8017121,8.11342387 C17.8017121,5.93150011 19.5349274,4.16326565 21.6736391,4.16326565 C23.8116467,4.16326565 25.545566,5.93150011 25.545566,8.11342387 C25.545566,10.2946294 23.8116467,12.0635821 21.6736391,12.0635821 M17.8017121,5.00424325 C18.7037832,3.82983435 20.1069008,3.07517662 21.6827909,3.07517662 C24.4044035,3.07517662 26.6106979,5.32604859 26.6106979,8.10265071 C26.6106979,10.8792528 24.4044035,13.1301248 21.6827909,13.1301248 C18.9751778,13.1301248 16.7775952,10.9023496 16.7550588,8.14545606 L16.7548839,8.14545606 L16.7548839,0.00841742804 L17.8017121,0.00841742804 L17.8017121,5.00424325 Z" id="Combined-Shape"></path>
                    <path d="M28.7342034,13.1729158 L27.6873752,13.1729158 L27.6873752,3.07516226 L28.7342034,3.07516226 L28.7342034,13.1729158 Z M28.2118031,0.010112405 C28.6006149,0.010112405 28.9157898,0.331655283 28.9157898,0.728322989 C28.9157898,1.12499069 28.6006149,1.44653357 28.2118031,1.44653357 C27.8229912,1.44653357 27.5078163,1.12499069 27.5078163,0.728322989 C27.5078163,0.331655283 27.8229912,0.010112405 28.2118031,0.010112405 Z" id="Combined-Shape"></path>
                    <text id="TM" font-family="MyriadPro-Regular, Myriad Pro" font-size="2.56856187" font-weight="normal">
                        <tspan x="29.8786898" y="12.9657312">TM</tspan>
                    </text>
                </g>
                <g id="Page-1" transform="translate(109.000000, 69.000000)" fill="#00B4F5">
                    <path d="M4.91875519,12.0635821 C2.78004355,12.0635821 1.04682825,10.2946294 1.04682825,8.11342387 C1.04682825,5.93150011 2.78004355,4.16326565 4.91875519,4.16326565 C7.05676285,4.16326565 8.79068214,5.93150011 8.79068214,8.11342387 C8.79068214,10.2946294 7.05676285,12.0635821 4.91875519,12.0635821 M4.92790702,3.07517662 C2.20629437,3.07517662 0,5.32604859 0,8.10265071 C0,10.8792528 2.20629437,13.1301248 4.92790702,13.1301248 C7.64951967,13.1301248 9.85581404,10.8792528 9.85581404,8.10265071 C9.85581404,5.32604859 7.64951967,3.07517662 4.92790702,3.07517662" id="Fill-1"></path>
                    <path d="M15.8678606,3.07517662 L15.8678606,4.16398387 C15.8678606,4.16326565 15.8319573,4.16326565 15.8171736,4.16326565 C13.6819818,4.16326565 11.9959337,5.92575443 11.925535,8.10265071 L11.925535,13.1516711 L10.9399536,13.1516711 L10.9399536,8.10265071 C10.9399536,5.32604859 13.1223124,3.07517662 15.8678606,3.07517662" id="Fill-3"></path>
                    <path d="M21.6736391,12.0635821 C19.5349274,12.0635821 17.8017121,10.2946294 17.8017121,8.11342387 C17.8017121,5.93150011 19.5349274,4.16326565 21.6736391,4.16326565 C23.8116467,4.16326565 25.545566,5.93150011 25.545566,8.11342387 C25.545566,10.2946294 23.8116467,12.0635821 21.6736391,12.0635821 M17.8017121,5.00424325 C18.7037832,3.82983435 20.1069008,3.07517662 21.6827909,3.07517662 C24.4044035,3.07517662 26.6106979,5.32604859 26.6106979,8.10265071 C26.6106979,10.8792528 24.4044035,13.1301248 21.6827909,13.1301248 C18.9751778,13.1301248 16.7775952,10.9023496 16.7550588,8.14545606 L16.7548839,8.14545606 L16.7548839,0.00841742804 L17.8017121,0.00841742804 L17.8017121,5.00424325 Z" id="Combined-Shape"></path>
                    <path d="M28.7342034,13.1729158 L27.6873752,13.1729158 L27.6873752,3.07516226 L28.7342034,3.07516226 L28.7342034,13.1729158 Z M28.2118031,0.010112405 C28.6006149,0.010112405 28.9157898,0.331655283 28.9157898,0.728322989 C28.9157898,1.12499069 28.6006149,1.44653357 28.2118031,1.44653357 C27.8229912,1.44653357 27.5078163,1.12499069 27.5078163,0.728322989 C27.5078163,0.331655283 27.8229912,0.010112405 28.2118031,0.010112405 Z" id="Combined-Shape"></path>
                    <text id="TM" font-family="MyriadPro-Regular, Myriad Pro" font-size="2.56856187" font-weight="normal">
                        <tspan x="29.8786898" y="12.9657312">TM</tspan>
                    </text>
                </g>
            </g>
        </g>
    </g>
</svg>