<?xml version="1.0" encoding="UTF-8" standalone="no"?>
<svg width="46px" height="46px" viewBox="0 0 46 46" version="1.1" xmlns="http://www.w3.org/2000/svg" xmlns:xlink="http://www.w3.org/1999/xlink">
    <!-- Generator: Sketch 3.7 (28169) - http://www.bohemiancoding.com/sketch -->
    <title>Group</title>
    <desc>Created with Sketch.</desc>
    <defs></defs>
    <g id="Page-1" stroke="none" stroke-width="1" fill="none" fill-rule="evenodd">
        <g id="Desktop-HD-Copy-12" transform="translate(-843.000000, -307.000000)">
            <g id="Group-2-Copy-2" transform="translate(816.000000, 307.000000)">
                <g id="Group" transform="translate(27.000000, 0.000000)">
                    <circle id="Oval-71" fill="#BA1CA5" cx="23" cy="23" r="23"></circle>
                    <text id="5-GHz" font-family="Roboto-Regular, Roboto" font-size="8" font-weight="normal" fill="#FFFFFF">
                        <tspan x="12.2050781" y="36">5 GHz</tspan>
                    </text>
                    <g id="Icon-24px" transform="translate(11.000000, 5.000000)">
                        <polygon id="Shape" points="0 0 24 0 24 24 0 24"></polygon>
                        <path d="M1,9 L3,11 C7.97,6.03 16.03,6.03 21,11 L23,9 C16.93,2.93 7.08,2.93 1,9 L1,9 L1,9 Z M9,17 L12,20 L15,17 C13.35,15.34 10.66,15.34 9,17 L9,17 L9,17 Z M5,13 L7,15 C9.76,12.24 14.24,12.24 17,15 L19,13 C15.14,9.14 8.87,9.14 5,13 L5,13 L5,13 Z" id="Shape" fill="#FFFFFF"></path>
                    </g>
                </g>
            </g>
        </g>
    </g>
</svg>