<?xml version="1.0" encoding="UTF-8" standalone="no"?>
<svg width="46px" height="46px" viewBox="0 0 46 46" version="1.1" xmlns="http://www.w3.org/2000/svg" xmlns:xlink="http://www.w3.org/1999/xlink">
    <!-- Generator: Sketch 3.7 (28169) - http://www.bohemiancoding.com/sketch -->
    <title>Group</title>
    <desc>Created with Sketch.</desc>
    <defs></defs>
    <g id="Page-1" stroke="none" stroke-width="1" fill="none" fill-rule="evenodd">
        <g id="Desktop-HD-Copy-12" transform="translate(-551.000000, -307.000000)">
            <g id="Group-2" transform="translate(541.000000, 307.000000)">
                <g id="Group" transform="translate(10.000000, 0.000000)">
                    <circle id="Oval-71" fill="#882EA3" cx="23" cy="23" r="23"></circle>
                    <text id="Admin" font-family="Roboto-Regular, Roboto" font-size="8" font-weight="normal" fill="#FFFFFF">
                        <tspan x="11.4511719" y="36">Admin</tspan>
                    </text>
                    <g id="Icon-24px" transform="translate(11.000000, 5.000000)">
                        <polygon id="Shape" points="0 0 24 0 24 24 0 24"></polygon>
                        <path d="M12,12 C14.21,12 16,10.21 16,8 C16,5.79 14.21,4 12,4 C9.79,4 8,5.79 8,8 C8,10.21 9.79,12 12,12 L12,12 L12,12 Z M12,14 C9.33,14 4,15.34 4,18 L4,20 L20,20 L20,18 C20,15.34 14.67,14 12,14 L12,14 L12,14 Z" id="Shape" fill="#FFFFFF"></path>
                    </g>
                </g>
            </g>
        </g>
    </g>
</svg>