<?xml version="1.0" encoding="UTF-8"?>
<svg width="55px" height="8px" viewBox="0 0 55 8" version="1.1" xmlns="http://www.w3.org/2000/svg" xmlns:xlink="http://www.w3.org/1999/xlink">
    <!-- Generator: Sketch 55 (78076) - https://sketchapp.com -->
    <title>Page 1</title>
    <desc>Created with Sketch.</desc>
    <g id="Page-1" stroke="none" stroke-width="1" fill="none" fill-rule="evenodd">
        <g id="Nighthawk" transform="translate(-293.000000, -470.000000)" fill="#FFFFFF">
            <g id="Nighthawk-App-Promo-Banner---2" transform="translate(161.000000, 238.000000)">
                <g id="Page-1" transform="translate(132.000000, 232.000000)">
                    <g id="Group-3" transform="translate(53.219805, 0.108138)">
                        <path d="M0.93743406,0.388353823 C1.31288885,0.388713643 1.66209826,0.686644678 1.66173374,1.09216192 C1.66136922,1.50595502 1.31689856,1.79345127 0.934517906,1.79309145 C0.557969559,1.79273163 0.212405345,1.49695952 0.212769865,1.09108246 C0.213134384,0.676929535 0.554324367,0.387994003 0.93743406,0.388353823 M0.934517906,1.95177211 C1.39672827,1.95213193 1.81957056,1.59015292 1.82029959,1.09252174 C1.82066411,0.582656672 1.40802836,0.235430285 0.935975983,0.235070465 C0.473401102,0.234710645 0.0512878533,0.590572714 0.0505588148,1.09108246 C0.0501942956,1.5843958 0.475952736,1.95141229 0.934517906,1.95177211" id="Fill-1"></path>
                    </g>
                    <path d="M54.1341586,0.882722112 L54.2316738,0.882722112 C54.339972,0.882722112 54.4632725,0.899134326 54.4632725,1.02012669 C54.4632725,1.12814196 54.3498173,1.14913433 54.252302,1.14913433 L54.1336897,1.14875265 L54.1341586,0.882722112 Z M54.1336897,1.3144015 L54.2307362,1.3144015 L54.4506143,1.71020303 L54.8087952,1.71058471 L54.5471919,1.27241677 C54.6897141,1.23463051 54.7984811,1.14302746 54.7984811,1.00256944 C54.7989499,0.754859517 54.4993719,0.711348066 54.284182,0.710966387 L53.8097329,0.710584708 L53.8087952,1.70982135 L54.1332209,1.70982135 L54.1336897,1.3144015 Z" id="Fill-4"></path>
                    <polygon id="Fill-6" points="14.3841833 5.8564078 11.5482238 5.85388906 11.5493174 4.62510345 14.2664436 4.62762219 14.2679017 3.06384408 11.5507755 3.06132534 11.5515045 1.87463868 14.387464 1.87715742 14.3889221 0.31086057 9.57726844 0.306542729 9.57107162 7.41622789 14.3827252 7.42018591"></polygon>
                    <g id="Group-10" transform="translate(0.000000, 0.108138)">
                        <polygon id="Fill-8" points="1.9778448 2.94501949 1.99935143 2.94501949 5.26289194 7.30423988 7.23603444 7.30603898 7.24223127 0.196353823 5.26908877 0.194914543 5.26507906 4.54154123 5.24357243 4.54154123 1.98039643 0.192035982 0.0061603747 0.190236882 -3.64519213e-05 7.29992204 1.97419961 7.30136132"></polygon>
                    </g>
                    <g id="Group-13" transform="translate(22.235672, 0.024180)">
                        <path d="M4.13503305,7.64017991 C5.40647606,7.64125937 6.46649793,7.22098951 7.21084617,6.24803598 C7.88775834,5.36287856 7.96685901,4.47808096 7.98873017,3.44071964 L4.12883622,3.43748126 L4.12774266,4.88791604 L5.68205259,4.88935532 C5.60040028,5.70974513 5.00368233,6.12425787 4.14596862,6.12353823 C2.84682215,6.12245877 2.19980055,4.99874063 2.20052958,3.89733133 C2.20162314,2.81283358 2.76079561,1.65493253 4.06249372,1.65601199 C4.85714561,1.65673163 5.43272145,2.10974513 5.7031947,2.78728636 L7.57682346,2.05505247 C6.92396955,0.724797601 5.71522384,0.0609295352 4.15435257,0.059850075 C1.70660605,0.0576911544 0.15083805,1.57757121 0.149015454,3.88545727 C0.147192858,6.12029985 1.74852576,7.63802099 4.13503305,7.64017991" id="Fill-11"></path>
                    </g>
                    <path d="M48.7549915,1.7553943 L49.3199963,1.75575412 C49.9681114,1.75647376 50.5174419,1.86837781 50.5167129,2.64307046 C50.5159838,3.41668366 49.9086948,3.52714843 49.2605797,3.52678861 L48.7535334,3.52606897 L48.7549915,1.7553943 Z M48.7524399,4.71491454 L48.8931443,4.71491454 L50.690224,7.45098651 L53.090583,7.45278561 L50.8294703,4.53788306 C51.9069891,4.35869265 52.4902199,3.51311544 52.4913134,2.53044678 C52.492407,1.01452474 51.354378,0.34202099 49.855475,0.340581709 L46.7833071,0.338062969 L46.7771103,7.44738831 L48.7498882,7.44918741 L48.7524399,4.71491454 Z" id="Fill-14"></path>
                    <polygon id="Fill-16" points="36.7691988 5.87533433 33.9321458 5.87281559 33.9332393 4.64402999 36.6507301 4.64654873 36.6521881 3.08277061 33.9346974 3.08025187 33.935791 1.89356522 36.7724795 1.89608396 36.7739376 0.329787106 31.9615549 0.325469265 31.9553581 7.43515442 36.7677407 7.43911244"></polygon>
                    <path d="M41.723744,2.23888456 L41.7787864,2.23888456 L42.5985901,4.72128336 L40.899566,4.71984408 L41.723744,2.23888456 Z M40.4300653,6.13357721 L43.0659037,6.13573613 L43.498588,7.44476162 L45.537344,7.44656072 L42.892028,0.334716642 L40.6148765,0.332917541 L37.9549798,7.44008396 L39.9951938,7.44188306 L40.4300653,6.13357721 Z" id="Fill-18"></path>
                    <polygon id="Fill-20" points="17.6402147 7.42284858 19.6457994 7.42464768 19.6505382 1.88125937 21.5624415 1.88269865 21.563535 0.316761619 15.7363309 0.311724138 15.7348728 1.87802099 17.6449535 1.87946027"></polygon>
                </g>
            </g>
        </g>
    </g>
</svg>