<?xml version="1.0" encoding="UTF-8"?>
<svg width="164px" height="25px" viewBox="0 0 164 25" version="1.1" xmlns="http://www.w3.org/2000/svg" xmlns:xlink="http://www.w3.org/1999/xlink">
    <!-- Generator: Sketch 54.1 (76490) - https://sketchapp.com -->
    <title>NETGEAR LOGO</title>
    <desc>Created with Sketch.</desc>
    <g id="Get-the-app-V2" stroke="none" stroke-width="1" fill="none" fill-rule="evenodd">
        <g id="Desktop-Get-the-app-V1.0.2" transform="translate(-457.000000, -59.000000)" fill="#231F20">
            <g id="NETGEAR-LOGO" transform="translate(455.000000, 59.000000)">
                <g id="Group" transform="translate(2.829545, 0.000000)">
                    <path d="M159.781557,3.73219496 L159.509215,3.73219496 L159.509215,2.93689281 L159.733427,2.93689281 C159.982292,2.93689281 160.265199,2.98543237 160.265199,3.34636763 C160.265199,3.66872014 160.004596,3.73219496 159.781557,3.73219496 M161.034095,3.29409424 C161.034095,2.55355468 160.347371,2.42411583 159.853164,2.42411583 L158.76497,2.42411583 L158.76497,5.40867698 L159.509215,5.40867698 L159.509215,4.22630288 L159.732254,4.22630288 L160.238199,5.40867698 L161.059921,5.40867698 L160.457716,4.09935324 C160.785231,3.98733885 161.034095,3.7135259 161.034095,3.29409424" id="Fill-1065"></path>
                    <path d="M159.785665,6.19601367 C158.673993,6.19601367 157.653885,5.25882662 157.653885,3.97190576 C157.653885,2.66009281 158.659907,1.74406403 159.790361,1.74406403 C160.898511,1.74406403 161.929185,2.6874741 161.929185,3.97190576 C161.929185,5.28371871 160.913772,6.19601367 159.785665,6.19601367 M159.785665,1.25742374 C158.421607,1.25742374 157.176112,2.38627986 157.176112,3.97190576 C157.176112,5.53637338 158.433346,6.69883381 159.785665,6.69883381 C161.149723,6.69883381 162.396393,5.55006403 162.396393,3.97190576 C162.396393,2.35640935 161.179071,1.25742374 159.785665,1.25742374" id="Fill-1066"></path>
                    <path d="M145.349306,11.3606237 L143.852599,11.3606237 L143.852599,5.74745827 L145.51952,5.74745827 C147.431784,5.74745827 149.052923,6.1021705 149.052923,8.55653022 C149.052923,11.0084007 147.26157,11.3606237 145.349306,11.3606237 M154.880104,8.19559496 C154.880104,3.3901777 151.519262,1.26190432 147.097226,1.26190432 L138.031287,1.26190432 L138.031287,23.7942209 L143.852599,23.7942209 L143.852599,15.128041 L144.268155,15.128041 L149.578825,23.7942209 L156.660893,23.7942209 L149.981469,14.561746 C153.160358,13.9904727 154.880104,11.3083504 154.880104,8.19559496" id="Fill-1067"></path>
                    <path d="M120.680164,15.1648813 L123.105417,7.29898201 L123.268587,7.29898201 L125.69384,15.1648813 L120.680164,15.1648813 Z M119.829095,1.26140647 L111.998087,23.793723 L118.018959,23.793723 L119.298497,19.6467014 L127.07668,19.6467014 L128.356219,23.793723 L134.372395,23.793723 L126.548431,1.26140647 L119.829095,1.26140647 Z" id="Fill-1068"></path>
                    <polygon id="Fill-1069" points="94.2944448 23.7943453 108.49497 23.7943453 108.49497 18.8383309 100.123973 18.8383309 100.123973 14.943964 108.142803 14.943964 108.142803 9.98794964 100.123973 9.98794964 100.123973 6.22551079 108.49497 6.22551079 108.49497 1.26202878 94.2944448 1.26202878"></polygon>
                    <path d="M77.7872295,15.8129468 L82.3736106,15.8129468 C82.1353113,18.4129252 80.3756529,19.7297165 77.84475,19.7297165 C74.0108313,19.7297165 72.0985675,16.1701482 72.0985675,12.6790331 C72.0985675,9.24143597 73.7455326,5.56985324 77.5864946,5.56985324 C79.9319232,5.56985324 81.6305394,7.00488201 82.4311311,9.15182446 L87.9577966,6.82565899 C86.0279244,2.61142878 82.4593044,0.510536691 77.8541411,0.510536691 C70.6312073,0.510536691 66.0436523,5.33213381 66.0436523,12.6466734 C66.0436523,19.7297165 70.7732477,24.5363784 77.8154028,24.5363784 C81.5683233,24.5363784 84.6943875,23.200918 86.8883844,20.1155439 C88.8839943,17.3077165 89.1152503,14.5048676 89.1774664,11.2153784 L77.7872295,11.2153784 L77.7872295,15.8129468 Z" id="Fill-1070"></path>
                    <polygon id="Fill-1071" points="46.4171814 6.22501295 52.0530184 6.22501295 52.0530184 23.7938475 57.9717626 23.7938475 57.9717626 6.22501295 63.6122952 6.22501295 63.6122952 1.26153094 46.4171814 1.26153094"></polygon>
                    <polygon id="Fill-1072" points="28.2430448 23.7943453 42.4412222 23.7943453 42.4412222 18.8383309 34.0725735 18.8383309 34.0725735 14.943964 42.0914035 14.943964 42.0914035 9.98794964 34.0725735 9.98794964 34.0725735 6.22551079 42.4412222 6.22551079 42.4412222 1.26202878 28.2430448 1.26202878"></polygon>
                    <polygon id="Fill-1073" points="15.5299534 15.0379317 15.4665635 15.0379317 5.82542 1.26140647 0.000586944081 1.26140647 0.000586944081 23.793723 5.82542 23.793723 5.82542 9.98608273 5.88880997 9.98608273 15.5299534 23.793723 21.3524387 23.793723 21.3524387 1.26140647 15.5299534 1.26140647"></polygon>
                </g>
            </g>
        </g>
    </g>
</svg>