<?xml version="1.0" encoding="UTF-8"?>
<svg width="51px" height="20px" viewBox="0 0 51 20" version="1.1" xmlns="http://www.w3.org/2000/svg" xmlns:xlink="http://www.w3.org/1999/xlink">
    <!-- Generator: Sketch 55 (78076) - https://sketchapp.com -->
    <title>Group 13</title>
    <desc>Created with Sketch.</desc>
    <defs>
        <polygon id="path-1" points="0 19.5005714 50.2157547 19.5005714 50.2157547 -0.000380952358 0 -0.000380952358"></polygon>
    </defs>
    <g id="Page-1" stroke="none" stroke-width="1" fill="none" fill-rule="evenodd">
        <g id="Orbi" transform="translate(-286.000000, -330.000000)">
            <g id="Orbi-App-Promo-Banner---2" transform="translate(211.000000, 315.000000)">
                <g id="Bitmap">
                    <g id="Group-13" transform="translate(75.000000, 15.000000)">
                        <path d="M7.50777736,17.8571429 C4.24281509,17.8571429 1.59755094,15.2371429 1.59755094,12.0057143 C1.59755094,8.77333333 4.24281509,6.15428571 7.50777736,6.15428571 C10.7708151,6.15428571 13.4180038,8.77333333 13.4180038,12.0057143 C13.4180038,15.2371429 10.7708151,17.8571429 7.50777736,17.8571429 M7.52221132,4.54285714 C3.36715472,4.54285714 0.00019245283,7.87714286 0.00019245283,11.9895238 C0.00019245283,16.1028571 3.36715472,19.4371429 7.52221132,19.4371429 C11.6753434,19.4371429 15.0432679,16.1028571 15.0432679,11.9895238 C15.0432679,7.87714286 11.6753434,4.54285714 7.52221132,4.54285714" id="Fill-1" fill="#F2F2F2"></path>
                        <path d="M16.6981698,11.9898095 L16.6981698,19.4688571 L18.2012264,19.4688571 L18.2012264,11.9898095 C18.3099623,8.76504762 20.8830566,6.15457143 24.141283,6.15457143 L24.2192264,6.15457143 L24.2192264,4.54314286 C20.028566,4.54314286 16.6981698,7.87742857 16.6981698,11.9898095" id="Fill-3" fill="#F2F2F2"></path>
                        <path d="M33.0801396,17.8571429 C29.8161396,17.8571429 27.1708755,15.2371429 27.1708755,12.0057143 C27.1708755,8.77333333 29.8161396,6.15428571 33.0801396,6.15428571 C36.3441396,6.15428571 38.990366,8.77333333 38.990366,12.0057143 C38.990366,15.2371429 36.3441396,17.8571429 33.0801396,17.8571429 M33.0945736,4.54285714 C30.6898755,4.54285714 28.5478755,5.66095238 27.1708755,7.40095238 L27.1708755,0 L25.5725547,0 L25.5725547,12.0533333 L25.573517,12.0533333 C25.6071962,16.1371429 28.9626113,19.4371429 33.0945736,19.4371429 C37.2486679,19.4371429 40.6156302,16.1028571 40.6156302,11.9895238 C40.6156302,7.87714286 37.2486679,4.54285714 33.0945736,4.54285714" id="Fill-5" fill="#F2F2F2"></path>
                        <path d="M43.0598774,2.13028571 C43.6526321,2.13028571 44.1337642,1.65409524 44.1337642,1.06647619 C44.1337642,0.478857143 43.6526321,0.00266666651 43.0598774,0.00266666651 C42.4661604,0.00266666651 41.9859906,0.478857143 41.9859906,1.06647619 C41.9859906,1.65409524 42.4661604,2.13028571 43.0598774,2.13028571" id="Fill-7" fill="#F2F2F2"></path>
                        <mask id="mask-2" fill="white">
                            <use xlink:href="#path-1"></use>
                        </mask>
                        <g id="Clip-10"></g>
                        <polygon id="Fill-9" fill="#F2F2F2" mask="url(#mask-2)" points="42.2587925 19.5005714 43.8561509 19.5005714 43.8561509 4.54247619 42.2587925 4.54247619"></polygon>
                        <polygon id="Fill-11" fill="#F2F2F2" mask="url(#mask-2)" points="46.4710075 19.5005714 46.7875925 19.5005714 46.7875925 17.1300952 47.5304604 17.1300952 47.5304604 16.8386667 45.7319887 16.8386667 45.7319887 17.1300952 46.4710075 17.1300952"></polygon>
                        <path d="M48.0995434,18.3588571 C48.1207132,17.9598095 48.1399585,17.5131429 48.1466943,17.1817143 L48.1543925,17.1817143 C48.2227132,17.4979048 48.3199019,17.8417143 48.4353736,18.2169524 L48.8279774,19.4845714 L49.0656566,19.4845714 L49.4948264,18.1931429 C49.617034,17.8255238 49.719034,17.4940952 49.8017887,17.1817143 L49.8114113,17.1817143 C49.8075623,17.5131429 49.8296943,17.9598095 49.8479774,18.3312381 L49.9095623,19.5007619 L50.2155623,19.5007619 L50.0644868,16.8379048 L49.6641849,16.8379048 L49.2321283,18.1255238 C49.1233925,18.4617143 49.0377509,18.7540952 48.9752038,19.0226667 L48.9646189,19.0226667 C48.9039962,18.7464762 48.8202792,18.4540952 48.7202038,18.1255238 L48.3054679,16.8379048 L47.905166,16.8379048 L47.7358075,19.5007619 L48.0350717,19.5007619 L48.0995434,18.3588571 Z" id="Fill-12" fill="#F2F2F2" mask="url(#mask-2)"></path>
                    </g>
                </g>
            </g>
        </g>
    </g>
</svg>