<?xml version="1.0" encoding="UTF-8"?>
<svg width="40px" height="40px" viewBox="0 0 40 40" version="1.1" xmlns="http://www.w3.org/2000/svg" xmlns:xlink="http://www.w3.org/1999/xlink">
    <!-- Generator: Sketch 55.2 (78181) - https://sketchapp.com -->
    <title>Nighthawk</title>
    <desc>Created with Sketch.</desc>
    <g id="Page-1" stroke="none" stroke-width="1" fill="none" fill-rule="evenodd">
        <g id="Nighthawk">
            <path d="M30.46875,5.85280616e-16 C36.25,5.85280616e-16 40,3.75 40,9.53125 L40,30.46875 C40,36.25 36.25,40 30.46875,40 L9.53125,40 C3.75,40 0,36.25 0,30.46875 L0,9.53125 C0,3.75 3.75,5.85280619e-16 9.53125,5.85280619e-16 L30.46875,5.85280616e-16 Z" id="App-Icon-Shape" fill="#00B4F5"></path>
            <path d="M40,32 C40,32.166767 39.9955708,32.3315203 39.9867821,32.4942014 C39.7398444,37.0650878 36.0513127,40 30.46875,40 L9.53125,40 C3.94183045,40 0.251097556,37.0578737 0.0123235808,32.4773513 C0.00412879074,32.3201464 0,32.1610118 0,32 L40,32 Z" id="App-Icon-Shape" fill="#333333"></path>
            <g id="logo-2" transform="translate(7.000000, 34.031250)" fill="#FFFFFF">
                <g id="Group" transform="translate(0.109375, 0.031250)">
                    <path d="M26.0231683,0.567922284 L25.9789187,0.567922284 L25.9789187,0.445930177 L26.0153452,0.445930177 C26.0556832,0.445930177 26.1018887,0.453264372 26.1018887,0.508759779 C26.1018887,0.558143357 26.0595948,0.567922284 26.0231683,0.567922284 M26.0238284,0.188622175 C26.2502105,0.188622175 26.4484783,0.357064183 26.4484783,0.604715494 C26.4484783,0.846743923 26.2455655,1.0227646 26.0238284,1.0227646 C25.804047,1.0227646 25.599423,0.844788138 25.599423,0.604715494 C25.599423,0.361709173 25.8020912,0.188622175 26.0238284,0.188622175 Z M26.0238284,0.945755553 C26.2071833,0.945755553 26.3724471,0.805916905 26.3724471,0.604715494 C26.3724471,0.407670127 26.2047385,0.262942016 26.0245618,0.262942016 C25.840718,0.262942016 25.6774099,0.403514083 25.6774099,0.604715494 C25.6774099,0.802005335 25.8431627,0.945755553 26.0238284,0.945755553 Z M26.2268144,0.500692165 C26.2268144,0.564988606 26.1862319,0.607037989 26.1331812,0.624395584 L26.2309705,0.824863575 L26.0974881,0.824863575 L26.0151007,0.643708963 L25.9789187,0.643708963 L25.9789187,0.824863575 L25.8579045,0.824863575 L25.8579045,0.367209819 L26.034903,0.367209819 C26.1150902,0.367209819 26.2268144,0.387256618 26.2268144,0.500692165 Z M25.2261858,1.25220266 C25.2261858,1.72965874 24.946753,2.14110707 24.4296922,2.22862846 L25.5158865,3.64437253 L24.3644179,3.64437253 L23.5009387,2.31541643 L23.4334641,2.31541643 L23.4334641,3.64437253 L22.486864,3.64437253 L22.486864,0.188988885 L23.9607927,0.188988885 C24.6800328,0.188988885 25.2261858,0.515360554 25.2261858,1.25220266 Z M23.6767149,1.73772636 C23.9876848,1.73772636 24.2788523,1.68369779 24.2788523,1.30769807 C24.2788523,0.9312094 24.0153102,0.876936358 23.7045849,0.876936358 L23.4334641,0.876936358 L23.4334641,1.73772636 L23.6767149,1.73772636 Z M19.5275409,0.18903778 L20.6200914,0.18903778 L21.8920853,3.64442143 L20.9139482,3.64442143 L20.7059015,3.00830226 L19.4412419,3.00830226 L19.2331952,3.64442143 L18.2545691,3.64442143 L19.5275409,0.18903778 Z M19.6659127,2.32108821 L20.4812307,2.32108821 L20.086651,1.11485764 L20.0602479,1.11485764 L19.6659127,2.32108821 Z M15.3759955,3.64437253 L15.3759955,0.188988885 L17.6848,0.188988885 L17.6848,0.950278306 L16.3238179,0.950278306 L16.3238179,1.52723496 L17.6275933,1.52723496 L17.6275933,2.28705755 L16.3238179,2.28705755 L16.3238179,2.88430548 L17.6848,2.88430548 L17.6848,3.64437253 L15.3759955,3.64437253 Z M12.6921936,2.42046655 L12.6921936,1.71540596 L14.5440777,1.71540596 C14.5338099,2.21975409 14.4964055,2.64978238 14.1719896,3.08029961 C13.8153033,3.55335518 13.3067991,3.75822368 12.6968385,3.75822368 C11.5519707,3.75822368 10.7828582,3.02113711 10.7828582,1.93494285 C10.7828582,0.813299995 11.5287458,0.0740131579 12.7029504,0.0740131579 C13.4517717,0.0740131579 14.0319065,0.39598431 14.34581,1.04212687 L13.4471267,1.39905769 C13.317067,1.06975234 13.0408123,0.849726496 12.6596786,0.849726496 C12.0350497,0.849726496 11.7673516,1.41274818 11.7673516,1.93983232 C11.7673516,2.47522854 12.0783215,3.02113711 12.7014835,3.02113711 C13.1129319,3.02113711 13.3992099,2.81920228 13.4378367,2.42046655 L12.6921936,2.42046655 Z M7.59192114,0.950180517 L7.59192114,0.188891096 L10.3877162,0.188891096 L10.3877162,0.950180517 L9.47045291,0.950180517 L9.47045291,3.64427474 L8.50820655,3.64427474 L8.50820655,0.950180517 L7.59192114,0.950180517 Z M4.63709629,3.64437253 L4.63709629,0.188988885 L6.94541187,0.188988885 L6.94541187,0.950278306 L5.58491873,0.950278306 L5.58491873,1.52723496 L6.88844963,1.52723496 L6.88844963,2.28705755 L5.58491873,2.28705755 L5.58491873,2.88430548 L6.94541187,2.88430548 L6.94541187,3.64437253 L4.63709629,3.64437253 Z M2.57014906,2.30162815 L2.57014906,0.188891096 L3.51674914,0.188891096 L3.51674914,3.64427474 L2.57014906,3.64427474 L1.00258716,1.52713718 L0.992319286,1.52713718 L0.992319286,3.64427474 L0.0452302632,3.64427474 L0.0452302632,0.188891096 L0.992319286,0.188891096 L2.55988119,2.30162815 L2.57014906,2.30162815 Z" id="Combined-Shape"></path>
                </g>
            </g>
            <g id="logo" transform="translate(5.333333, 10.666667)" fill="#FFFFFF">
                <path d="M5.00518491,11.9047619 C7.1805434,11.9047619 8.94533585,10.1580952 8.94533585,8.00380952 C8.94533585,5.84888889 7.1805434,4.10285714 5.00518491,4.10285714 C2.8285434,4.10285714 1.06503396,5.84888889 1.06503396,8.00380952 C1.06503396,10.1580952 2.8285434,11.9047619 5.00518491,11.9047619 Z M5.01480755,3.02857143 C7.78356226,3.02857143 10.0288453,5.25142857 10.0288453,7.99301587 C10.0288453,10.7352381 7.78356226,12.9580952 5.01480755,12.9580952 C2.24476981,12.9580952 0.000128301887,10.7352381 0.000128301887,7.99301587 C0.000128301887,5.25142857 2.24476981,3.02857143 5.01480755,3.02857143 Z M11.1321132,7.99320635 C11.1321132,5.25161905 13.3523774,3.0287619 16.1461509,3.0287619 L16.1461509,4.10304762 L16.0941887,4.10304762 C13.9220377,4.10304762 12.2066415,5.84336508 12.1341509,7.99320635 L12.1341509,12.9792381 L11.1321132,12.9792381 L11.1321132,7.99320635 Z M22.0534264,11.9047619 C24.2294264,11.9047619 25.9935774,10.1580952 25.9935774,8.00380952 C25.9935774,5.84888889 24.2294264,4.10285714 22.0534264,4.10285714 C19.8774264,4.10285714 18.113917,5.84888889 18.113917,8.00380952 C18.113917,10.1580952 19.8774264,11.9047619 22.0534264,11.9047619 Z M22.0630491,3.02857143 C24.8324453,3.02857143 27.0770868,5.25142857 27.0770868,7.99301587 C27.0770868,10.7352381 24.8324453,12.9580952 22.0630491,12.9580952 C19.3084075,12.9580952 17.0714642,10.7580952 17.0490113,8.03555556 L17.0483698,8.03555556 L17.0483698,9.23705556e-14 L18.113917,9.23705556e-14 L18.113917,4.93396825 C19.031917,3.77396825 20.459917,3.02857143 22.0630491,3.02857143 Z M28.7065849,1.42019048 C28.3107736,1.42019048 27.9906604,1.10273016 27.9906604,0.710984127 C27.9906604,0.319238095 28.3107736,0.00177777767 28.7065849,0.00177777767 C29.1017547,0.00177777767 29.4225094,0.319238095 29.4225094,0.710984127 C29.4225094,1.10273016 29.1017547,1.42019048 28.7065849,1.42019048 Z M28.1725283,13.000381 L28.1725283,3.02831746 L29.237434,3.02831746 L29.237434,13.000381 L28.1725283,13.000381 Z" id="Combined-Shape"></path>
            </g>
        </g>
    </g>
</svg>